M48
; DRILL file {KiCad (5.1.9)-1} date 03/17/21 19:06:37
; FORMAT={-:-/ absolute / metric / decimal}
; #@! TF.CreationDate,2021-03-17T19:06:37+01:00
; #@! TF.GenerationSoftware,Kicad,Pcbnew,(5.1.9)-1
FMAT,2
METRIC
T1C0.500
T2C0.762
T3C0.800
T4C0.900
T5C1.100
T6C1.200
T7C1.400
T8C3.200
%
G90
G05
T1
X30.48Y-63.5
X30.48Y-71.12
X32.92Y-113.13
X34.29Y-81.28
X44.45Y-63.5
X44.45Y-71.12
X44.45Y-81.28
X44.45Y-113.03
X54.61Y-81.28
X63.4Y-113.13
X63.5Y-71.12
X64.77Y-81.28
X66.04Y-69.85
X72.39Y-62.23
X72.39Y-71.12
X73.56Y-113.13
X74.93Y-81.28
X76.2Y-67.31
X80.01Y-67.31
X83.82Y-67.31
X86.26Y-113.13
X86.36Y-81.28
X87.63Y-67.31
X91.44Y-67.31
X95.25Y-67.31
X96.52Y-81.28
X99.06Y-67.31
X100.23Y-113.13
X100.33Y-72.39
X102.87Y-67.31
X105.31Y-113.13
X105.41Y-72.39
X106.68Y-67.31
X106.68Y-81.28
X110.49Y-67.31
X111.76Y-72.39
X112.93Y-113.13
X116.84Y-62.23
X116.84Y-81.28
X124.46Y-62.23
X124.46Y-72.39
X125.73Y-81.28
T2
X58.42Y-66.04
X60.96Y-66.04
X63.5Y-66.04
X66.04Y-66.04
T3
X33.02Y-85.09
X33.02Y-87.63
X43.18Y-85.09
X43.18Y-87.63
X47.07Y-53.34
X52.07Y-53.34
X53.34Y-85.09
X53.34Y-87.63
X63.5Y-85.09
X63.5Y-87.63
X73.66Y-85.09
X73.66Y-87.63
X83.82Y-85.09
X83.82Y-87.63
X93.98Y-85.09
X93.98Y-87.63
X104.14Y-85.09
X104.14Y-87.63
X114.3Y-85.09
X114.3Y-87.63
X124.714Y-84.836
X124.714Y-87.376
T4
X33.02Y-95.25
X33.02Y-97.79
X42.926Y-72.415
X43.18Y-95.25
X43.18Y-97.79
X53.34Y-95.25
X53.34Y-97.79
X55.626Y-72.415
X63.5Y-95.25
X63.5Y-97.79
X73.66Y-95.25
X73.66Y-97.79
X83.82Y-95.25
X83.82Y-97.79
X93.98Y-95.25
X93.98Y-97.79
X104.14Y-95.25
X104.14Y-97.79
X114.3Y-95.25
X114.3Y-97.79
X124.714Y-94.996
X124.714Y-97.536
T5
X29.21Y-87.63
X29.21Y-97.79
X39.37Y-87.63
X39.37Y-97.79
X49.53Y-87.63
X49.53Y-97.79
X59.69Y-87.63
X59.69Y-97.79
X69.85Y-87.63
X69.85Y-97.79
X80.01Y-87.63
X80.01Y-97.79
X90.17Y-87.63
X90.17Y-97.79
X100.33Y-87.63
X100.33Y-97.79
X110.49Y-87.63
X110.49Y-97.79
X120.904Y-87.376
X120.904Y-97.536
T6
X29.21Y-105.41
X33.02Y-105.41
X35.56Y-51.308
X39.37Y-51.308
X39.37Y-105.41
X43.18Y-105.41
X49.53Y-105.41
X53.34Y-105.41
X59.69Y-105.41
X63.5Y-105.41
X69.85Y-105.41
X73.66Y-105.41
X76.2Y-55.88
X80.01Y-55.88
X80.01Y-105.41
X83.82Y-55.88
X83.82Y-105.41
X87.63Y-55.88
X90.17Y-105.41
X91.44Y-55.88
X93.98Y-105.41
X95.25Y-55.88
X99.06Y-55.88
X100.33Y-105.41
X102.87Y-55.88
X104.14Y-105.41
X106.68Y-55.88
X110.49Y-55.88
X110.49Y-105.41
X114.3Y-105.41
X120.65Y-105.41
X124.46Y-105.41
T7
X33.02Y-67.31
X45.72Y-67.31
T8
X28.448Y-50.8
X28.448Y-113.13
X125.73Y-50.8
X125.73Y-113.13
T0
M30
