%FSLAX45Y45*%
G04 Gerber Fmt 4.5, Leading zero omitted, Abs format (unit mm)*
G04 Created by KiCad (PCBNEW (5.1.9)-1) date 2021-03-17 19:06:38*
%MOMM*%
%LPD*%
G01*
G04 APERTURE LIST*
%TA.AperFunction,Profile*%
%ADD10C,0.050000*%
%TD*%
%ADD11C,0.200000*%
%ADD12C,0.300000*%
G04 APERTURE END LIST*
D10*
X2413000Y-11684000D02*
X2413000Y-4699000D01*
X12954000Y-11684000D02*
X2413000Y-11684000D01*
X12954000Y-4699000D02*
X12954000Y-11684000D01*
X2413000Y-4699000D02*
X12954000Y-4699000D01*
D11*
X3023000Y-6325000D02*
X3073000Y-6375000D01*
X3073000Y-6325000D02*
X3023000Y-6375000D01*
X3023000Y-7087000D02*
X3073000Y-7137000D01*
X3073000Y-7087000D02*
X3023000Y-7137000D01*
X3267000Y-11288000D02*
X3317000Y-11338000D01*
X3317000Y-11288000D02*
X3267000Y-11338000D01*
X3404000Y-8103000D02*
X3454000Y-8153000D01*
X3454000Y-8103000D02*
X3404000Y-8153000D01*
X4420000Y-6325000D02*
X4470000Y-6375000D01*
X4470000Y-6325000D02*
X4420000Y-6375000D01*
X4420000Y-7087000D02*
X4470000Y-7137000D01*
X4470000Y-7087000D02*
X4420000Y-7137000D01*
X4420000Y-8103000D02*
X4470000Y-8153000D01*
X4470000Y-8103000D02*
X4420000Y-8153000D01*
X4420000Y-11278000D02*
X4470000Y-11328000D01*
X4470000Y-11278000D02*
X4420000Y-11328000D01*
X5436000Y-8103000D02*
X5486000Y-8153000D01*
X5486000Y-8103000D02*
X5436000Y-8153000D01*
X6315000Y-11288000D02*
X6365000Y-11338000D01*
X6365000Y-11288000D02*
X6315000Y-11338000D01*
X6325000Y-7087000D02*
X6375000Y-7137000D01*
X6375000Y-7087000D02*
X6325000Y-7137000D01*
X6452000Y-8103000D02*
X6502000Y-8153000D01*
X6502000Y-8103000D02*
X6452000Y-8153000D01*
X6579000Y-6960000D02*
X6629000Y-7010000D01*
X6629000Y-6960000D02*
X6579000Y-7010000D01*
X7214000Y-6198000D02*
X7264000Y-6248000D01*
X7264000Y-6198000D02*
X7214000Y-6248000D01*
X7214000Y-7087000D02*
X7264000Y-7137000D01*
X7264000Y-7087000D02*
X7214000Y-7137000D01*
X7331000Y-11288000D02*
X7381000Y-11338000D01*
X7381000Y-11288000D02*
X7331000Y-11338000D01*
X7468000Y-8103000D02*
X7518000Y-8153000D01*
X7518000Y-8103000D02*
X7468000Y-8153000D01*
X7595000Y-6706000D02*
X7645000Y-6756000D01*
X7645000Y-6706000D02*
X7595000Y-6756000D01*
X7976000Y-6706000D02*
X8026000Y-6756000D01*
X8026000Y-6706000D02*
X7976000Y-6756000D01*
X8357000Y-6706000D02*
X8407000Y-6756000D01*
X8407000Y-6706000D02*
X8357000Y-6756000D01*
X8601000Y-11288000D02*
X8651000Y-11338000D01*
X8651000Y-11288000D02*
X8601000Y-11338000D01*
X8611000Y-8103000D02*
X8661000Y-8153000D01*
X8661000Y-8103000D02*
X8611000Y-8153000D01*
X8738000Y-6706000D02*
X8788000Y-6756000D01*
X8788000Y-6706000D02*
X8738000Y-6756000D01*
X9119000Y-6706000D02*
X9169000Y-6756000D01*
X9169000Y-6706000D02*
X9119000Y-6756000D01*
X9500000Y-6706000D02*
X9550000Y-6756000D01*
X9550000Y-6706000D02*
X9500000Y-6756000D01*
X9627000Y-8103000D02*
X9677000Y-8153000D01*
X9677000Y-8103000D02*
X9627000Y-8153000D01*
X9881000Y-6706000D02*
X9931000Y-6756000D01*
X9931000Y-6706000D02*
X9881000Y-6756000D01*
X9998000Y-11288000D02*
X10048000Y-11338000D01*
X10048000Y-11288000D02*
X9998000Y-11338000D01*
X10008000Y-7214000D02*
X10058000Y-7264000D01*
X10058000Y-7214000D02*
X10008000Y-7264000D01*
X10262000Y-6706000D02*
X10312000Y-6756000D01*
X10312000Y-6706000D02*
X10262000Y-6756000D01*
X10506000Y-11288000D02*
X10556000Y-11338000D01*
X10556000Y-11288000D02*
X10506000Y-11338000D01*
X10516000Y-7214000D02*
X10566000Y-7264000D01*
X10566000Y-7214000D02*
X10516000Y-7264000D01*
X10643000Y-6706000D02*
X10693000Y-6756000D01*
X10693000Y-6706000D02*
X10643000Y-6756000D01*
X10643000Y-8103000D02*
X10693000Y-8153000D01*
X10693000Y-8103000D02*
X10643000Y-8153000D01*
X11024000Y-6706000D02*
X11074000Y-6756000D01*
X11074000Y-6706000D02*
X11024000Y-6756000D01*
X11151000Y-7214000D02*
X11201000Y-7264000D01*
X11201000Y-7214000D02*
X11151000Y-7264000D01*
X11268000Y-11288000D02*
X11318000Y-11338000D01*
X11318000Y-11288000D02*
X11268000Y-11338000D01*
X11659000Y-6198000D02*
X11709000Y-6248000D01*
X11709000Y-6198000D02*
X11659000Y-6248000D01*
X11659000Y-8103000D02*
X11709000Y-8153000D01*
X11709000Y-8103000D02*
X11659000Y-8153000D01*
X12421000Y-6198000D02*
X12471000Y-6248000D01*
X12471000Y-6198000D02*
X12421000Y-6248000D01*
X12421000Y-7214000D02*
X12471000Y-7264000D01*
X12471000Y-7214000D02*
X12421000Y-7264000D01*
X12548000Y-8103000D02*
X12598000Y-8153000D01*
X12598000Y-8103000D02*
X12548000Y-8153000D01*
X5880100Y-6604000D02*
G75*
G03*
X5880100Y-6604000I-38100J0D01*
G01*
X6134100Y-6604000D02*
G75*
G03*
X6134100Y-6604000I-38100J0D01*
G01*
X6388100Y-6604000D02*
G75*
G03*
X6388100Y-6604000I-38100J0D01*
G01*
X6642100Y-6604000D02*
G75*
G03*
X6642100Y-6604000I-38100J0D01*
G01*
X3302000Y-8469000D02*
X3302000Y-8549000D01*
X3262000Y-8509000D02*
X3342000Y-8509000D01*
X3302000Y-8723000D02*
X3302000Y-8803000D01*
X3262000Y-8763000D02*
X3342000Y-8763000D01*
X4318000Y-8469000D02*
X4318000Y-8549000D01*
X4278000Y-8509000D02*
X4358000Y-8509000D01*
X4318000Y-8723000D02*
X4318000Y-8803000D01*
X4278000Y-8763000D02*
X4358000Y-8763000D01*
X4707000Y-5294000D02*
X4707000Y-5374000D01*
X4667000Y-5334000D02*
X4747000Y-5334000D01*
X5207000Y-5294000D02*
X5207000Y-5374000D01*
X5167000Y-5334000D02*
X5247000Y-5334000D01*
X5334000Y-8469000D02*
X5334000Y-8549000D01*
X5294000Y-8509000D02*
X5374000Y-8509000D01*
X5334000Y-8723000D02*
X5334000Y-8803000D01*
X5294000Y-8763000D02*
X5374000Y-8763000D01*
X6350000Y-8469000D02*
X6350000Y-8549000D01*
X6310000Y-8509000D02*
X6390000Y-8509000D01*
X6350000Y-8723000D02*
X6350000Y-8803000D01*
X6310000Y-8763000D02*
X6390000Y-8763000D01*
X7366000Y-8469000D02*
X7366000Y-8549000D01*
X7326000Y-8509000D02*
X7406000Y-8509000D01*
X7366000Y-8723000D02*
X7366000Y-8803000D01*
X7326000Y-8763000D02*
X7406000Y-8763000D01*
X8382000Y-8469000D02*
X8382000Y-8549000D01*
X8342000Y-8509000D02*
X8422000Y-8509000D01*
X8382000Y-8723000D02*
X8382000Y-8803000D01*
X8342000Y-8763000D02*
X8422000Y-8763000D01*
X9398000Y-8469000D02*
X9398000Y-8549000D01*
X9358000Y-8509000D02*
X9438000Y-8509000D01*
X9398000Y-8723000D02*
X9398000Y-8803000D01*
X9358000Y-8763000D02*
X9438000Y-8763000D01*
X10414000Y-8469000D02*
X10414000Y-8549000D01*
X10374000Y-8509000D02*
X10454000Y-8509000D01*
X10414000Y-8723000D02*
X10414000Y-8803000D01*
X10374000Y-8763000D02*
X10454000Y-8763000D01*
X11430000Y-8469000D02*
X11430000Y-8549000D01*
X11390000Y-8509000D02*
X11470000Y-8509000D01*
X11430000Y-8723000D02*
X11430000Y-8803000D01*
X11390000Y-8763000D02*
X11470000Y-8763000D01*
X12471400Y-8443600D02*
X12471400Y-8523600D01*
X12431400Y-8483600D02*
X12511400Y-8483600D01*
X12471400Y-8697600D02*
X12471400Y-8777600D01*
X12431400Y-8737600D02*
X12511400Y-8737600D01*
X3333820Y-9556820D02*
X3333820Y-9493180D01*
X3270180Y-9493180D01*
X3270180Y-9556820D01*
X3333820Y-9556820D01*
X3333820Y-9810820D02*
X3333820Y-9747180D01*
X3270180Y-9747180D01*
X3270180Y-9810820D01*
X3333820Y-9810820D01*
X4324420Y-7273360D02*
X4324420Y-7209720D01*
X4260780Y-7209720D01*
X4260780Y-7273360D01*
X4324420Y-7273360D01*
X4349820Y-9556820D02*
X4349820Y-9493180D01*
X4286180Y-9493180D01*
X4286180Y-9556820D01*
X4349820Y-9556820D01*
X4349820Y-9810820D02*
X4349820Y-9747180D01*
X4286180Y-9747180D01*
X4286180Y-9810820D01*
X4349820Y-9810820D01*
X5365820Y-9556820D02*
X5365820Y-9493180D01*
X5302180Y-9493180D01*
X5302180Y-9556820D01*
X5365820Y-9556820D01*
X5365820Y-9810820D02*
X5365820Y-9747180D01*
X5302180Y-9747180D01*
X5302180Y-9810820D01*
X5365820Y-9810820D01*
X5594420Y-7273360D02*
X5594420Y-7209720D01*
X5530780Y-7209720D01*
X5530780Y-7273360D01*
X5594420Y-7273360D01*
X6381820Y-9556820D02*
X6381820Y-9493180D01*
X6318180Y-9493180D01*
X6318180Y-9556820D01*
X6381820Y-9556820D01*
X6381820Y-9810820D02*
X6381820Y-9747180D01*
X6318180Y-9747180D01*
X6318180Y-9810820D01*
X6381820Y-9810820D01*
X7397820Y-9556820D02*
X7397820Y-9493180D01*
X7334180Y-9493180D01*
X7334180Y-9556820D01*
X7397820Y-9556820D01*
X7397820Y-9810820D02*
X7397820Y-9747180D01*
X7334180Y-9747180D01*
X7334180Y-9810820D01*
X7397820Y-9810820D01*
X8413820Y-9556820D02*
X8413820Y-9493180D01*
X8350180Y-9493180D01*
X8350180Y-9556820D01*
X8413820Y-9556820D01*
X8413820Y-9810820D02*
X8413820Y-9747180D01*
X8350180Y-9747180D01*
X8350180Y-9810820D01*
X8413820Y-9810820D01*
X9429820Y-9556820D02*
X9429820Y-9493180D01*
X9366180Y-9493180D01*
X9366180Y-9556820D01*
X9429820Y-9556820D01*
X9429820Y-9810820D02*
X9429820Y-9747180D01*
X9366180Y-9747180D01*
X9366180Y-9810820D01*
X9429820Y-9810820D01*
X10445820Y-9556820D02*
X10445820Y-9493180D01*
X10382180Y-9493180D01*
X10382180Y-9556820D01*
X10445820Y-9556820D01*
X10445820Y-9810820D02*
X10445820Y-9747180D01*
X10382180Y-9747180D01*
X10382180Y-9810820D01*
X10445820Y-9810820D01*
X11461820Y-9556820D02*
X11461820Y-9493180D01*
X11398180Y-9493180D01*
X11398180Y-9556820D01*
X11461820Y-9556820D01*
X11461820Y-9810820D02*
X11461820Y-9747180D01*
X11398180Y-9747180D01*
X11398180Y-9810820D01*
X11461820Y-9810820D01*
X12503220Y-9531420D02*
X12503220Y-9467780D01*
X12439580Y-9467780D01*
X12439580Y-9531420D01*
X12503220Y-9531420D01*
X12503220Y-9785420D02*
X12503220Y-9721780D01*
X12439580Y-9721780D01*
X12439580Y-9785420D01*
X12503220Y-9785420D01*
X2921000Y-8818000D02*
X2976000Y-8763000D01*
X2921000Y-8708000D01*
X2866000Y-8763000D01*
X2921000Y-8818000D01*
X2921000Y-9834000D02*
X2976000Y-9779000D01*
X2921000Y-9724000D01*
X2866000Y-9779000D01*
X2921000Y-9834000D01*
X3937000Y-8818000D02*
X3992000Y-8763000D01*
X3937000Y-8708000D01*
X3882000Y-8763000D01*
X3937000Y-8818000D01*
X3937000Y-9834000D02*
X3992000Y-9779000D01*
X3937000Y-9724000D01*
X3882000Y-9779000D01*
X3937000Y-9834000D01*
X4953000Y-8818000D02*
X5008000Y-8763000D01*
X4953000Y-8708000D01*
X4898000Y-8763000D01*
X4953000Y-8818000D01*
X4953000Y-9834000D02*
X5008000Y-9779000D01*
X4953000Y-9724000D01*
X4898000Y-9779000D01*
X4953000Y-9834000D01*
X5969000Y-8818000D02*
X6024000Y-8763000D01*
X5969000Y-8708000D01*
X5914000Y-8763000D01*
X5969000Y-8818000D01*
X5969000Y-9834000D02*
X6024000Y-9779000D01*
X5969000Y-9724000D01*
X5914000Y-9779000D01*
X5969000Y-9834000D01*
X6985000Y-8818000D02*
X7040000Y-8763000D01*
X6985000Y-8708000D01*
X6930000Y-8763000D01*
X6985000Y-8818000D01*
X6985000Y-9834000D02*
X7040000Y-9779000D01*
X6985000Y-9724000D01*
X6930000Y-9779000D01*
X6985000Y-9834000D01*
X8001000Y-8818000D02*
X8056000Y-8763000D01*
X8001000Y-8708000D01*
X7946000Y-8763000D01*
X8001000Y-8818000D01*
X8001000Y-9834000D02*
X8056000Y-9779000D01*
X8001000Y-9724000D01*
X7946000Y-9779000D01*
X8001000Y-9834000D01*
X9017000Y-8818000D02*
X9072000Y-8763000D01*
X9017000Y-8708000D01*
X8962000Y-8763000D01*
X9017000Y-8818000D01*
X9017000Y-9834000D02*
X9072000Y-9779000D01*
X9017000Y-9724000D01*
X8962000Y-9779000D01*
X9017000Y-9834000D01*
X10033000Y-8818000D02*
X10088000Y-8763000D01*
X10033000Y-8708000D01*
X9978000Y-8763000D01*
X10033000Y-8818000D01*
X10033000Y-9834000D02*
X10088000Y-9779000D01*
X10033000Y-9724000D01*
X9978000Y-9779000D01*
X10033000Y-9834000D01*
X11049000Y-8818000D02*
X11104000Y-8763000D01*
X11049000Y-8708000D01*
X10994000Y-8763000D01*
X11049000Y-8818000D01*
X11049000Y-9834000D02*
X11104000Y-9779000D01*
X11049000Y-9724000D01*
X10994000Y-9779000D01*
X11049000Y-9834000D01*
X12090400Y-8792600D02*
X12145400Y-8737600D01*
X12090400Y-8682600D01*
X12035400Y-8737600D01*
X12090400Y-8792600D01*
X12090400Y-9808600D02*
X12145400Y-9753600D01*
X12090400Y-9698600D01*
X12035400Y-9753600D01*
X12090400Y-9808600D01*
X2861000Y-10481000D02*
X2981000Y-10601000D01*
X2981000Y-10481000D02*
X2861000Y-10601000D01*
X2981000Y-10541000D02*
G75*
G03*
X2981000Y-10541000I-60000J0D01*
G01*
X3242000Y-10481000D02*
X3362000Y-10601000D01*
X3362000Y-10481000D02*
X3242000Y-10601000D01*
X3362000Y-10541000D02*
G75*
G03*
X3362000Y-10541000I-60000J0D01*
G01*
X3496000Y-5070800D02*
X3616000Y-5190800D01*
X3616000Y-5070800D02*
X3496000Y-5190800D01*
X3616000Y-5130800D02*
G75*
G03*
X3616000Y-5130800I-60000J0D01*
G01*
X3877000Y-5070800D02*
X3997000Y-5190800D01*
X3997000Y-5070800D02*
X3877000Y-5190800D01*
X3997000Y-5130800D02*
G75*
G03*
X3997000Y-5130800I-60000J0D01*
G01*
X3877000Y-10481000D02*
X3997000Y-10601000D01*
X3997000Y-10481000D02*
X3877000Y-10601000D01*
X3997000Y-10541000D02*
G75*
G03*
X3997000Y-10541000I-60000J0D01*
G01*
X4258000Y-10481000D02*
X4378000Y-10601000D01*
X4378000Y-10481000D02*
X4258000Y-10601000D01*
X4378000Y-10541000D02*
G75*
G03*
X4378000Y-10541000I-60000J0D01*
G01*
X4893000Y-10481000D02*
X5013000Y-10601000D01*
X5013000Y-10481000D02*
X4893000Y-10601000D01*
X5013000Y-10541000D02*
G75*
G03*
X5013000Y-10541000I-60000J0D01*
G01*
X5274000Y-10481000D02*
X5394000Y-10601000D01*
X5394000Y-10481000D02*
X5274000Y-10601000D01*
X5394000Y-10541000D02*
G75*
G03*
X5394000Y-10541000I-60000J0D01*
G01*
X5909000Y-10481000D02*
X6029000Y-10601000D01*
X6029000Y-10481000D02*
X5909000Y-10601000D01*
X6029000Y-10541000D02*
G75*
G03*
X6029000Y-10541000I-60000J0D01*
G01*
X6290000Y-10481000D02*
X6410000Y-10601000D01*
X6410000Y-10481000D02*
X6290000Y-10601000D01*
X6410000Y-10541000D02*
G75*
G03*
X6410000Y-10541000I-60000J0D01*
G01*
X6925000Y-10481000D02*
X7045000Y-10601000D01*
X7045000Y-10481000D02*
X6925000Y-10601000D01*
X7045000Y-10541000D02*
G75*
G03*
X7045000Y-10541000I-60000J0D01*
G01*
X7306000Y-10481000D02*
X7426000Y-10601000D01*
X7426000Y-10481000D02*
X7306000Y-10601000D01*
X7426000Y-10541000D02*
G75*
G03*
X7426000Y-10541000I-60000J0D01*
G01*
X7560000Y-5528000D02*
X7680000Y-5648000D01*
X7680000Y-5528000D02*
X7560000Y-5648000D01*
X7680000Y-5588000D02*
G75*
G03*
X7680000Y-5588000I-60000J0D01*
G01*
X7941000Y-5528000D02*
X8061000Y-5648000D01*
X8061000Y-5528000D02*
X7941000Y-5648000D01*
X8061000Y-5588000D02*
G75*
G03*
X8061000Y-5588000I-60000J0D01*
G01*
X7941000Y-10481000D02*
X8061000Y-10601000D01*
X8061000Y-10481000D02*
X7941000Y-10601000D01*
X8061000Y-10541000D02*
G75*
G03*
X8061000Y-10541000I-60000J0D01*
G01*
X8322000Y-5528000D02*
X8442000Y-5648000D01*
X8442000Y-5528000D02*
X8322000Y-5648000D01*
X8442000Y-5588000D02*
G75*
G03*
X8442000Y-5588000I-60000J0D01*
G01*
X8322000Y-10481000D02*
X8442000Y-10601000D01*
X8442000Y-10481000D02*
X8322000Y-10601000D01*
X8442000Y-10541000D02*
G75*
G03*
X8442000Y-10541000I-60000J0D01*
G01*
X8703000Y-5528000D02*
X8823000Y-5648000D01*
X8823000Y-5528000D02*
X8703000Y-5648000D01*
X8823000Y-5588000D02*
G75*
G03*
X8823000Y-5588000I-60000J0D01*
G01*
X8957000Y-10481000D02*
X9077000Y-10601000D01*
X9077000Y-10481000D02*
X8957000Y-10601000D01*
X9077000Y-10541000D02*
G75*
G03*
X9077000Y-10541000I-60000J0D01*
G01*
X9084000Y-5528000D02*
X9204000Y-5648000D01*
X9204000Y-5528000D02*
X9084000Y-5648000D01*
X9204000Y-5588000D02*
G75*
G03*
X9204000Y-5588000I-60000J0D01*
G01*
X9338000Y-10481000D02*
X9458000Y-10601000D01*
X9458000Y-10481000D02*
X9338000Y-10601000D01*
X9458000Y-10541000D02*
G75*
G03*
X9458000Y-10541000I-60000J0D01*
G01*
X9465000Y-5528000D02*
X9585000Y-5648000D01*
X9585000Y-5528000D02*
X9465000Y-5648000D01*
X9585000Y-5588000D02*
G75*
G03*
X9585000Y-5588000I-60000J0D01*
G01*
X9846000Y-5528000D02*
X9966000Y-5648000D01*
X9966000Y-5528000D02*
X9846000Y-5648000D01*
X9966000Y-5588000D02*
G75*
G03*
X9966000Y-5588000I-60000J0D01*
G01*
X9973000Y-10481000D02*
X10093000Y-10601000D01*
X10093000Y-10481000D02*
X9973000Y-10601000D01*
X10093000Y-10541000D02*
G75*
G03*
X10093000Y-10541000I-60000J0D01*
G01*
X10227000Y-5528000D02*
X10347000Y-5648000D01*
X10347000Y-5528000D02*
X10227000Y-5648000D01*
X10347000Y-5588000D02*
G75*
G03*
X10347000Y-5588000I-60000J0D01*
G01*
X10354000Y-10481000D02*
X10474000Y-10601000D01*
X10474000Y-10481000D02*
X10354000Y-10601000D01*
X10474000Y-10541000D02*
G75*
G03*
X10474000Y-10541000I-60000J0D01*
G01*
X10608000Y-5528000D02*
X10728000Y-5648000D01*
X10728000Y-5528000D02*
X10608000Y-5648000D01*
X10728000Y-5588000D02*
G75*
G03*
X10728000Y-5588000I-60000J0D01*
G01*
X10989000Y-5528000D02*
X11109000Y-5648000D01*
X11109000Y-5528000D02*
X10989000Y-5648000D01*
X11109000Y-5588000D02*
G75*
G03*
X11109000Y-5588000I-60000J0D01*
G01*
X10989000Y-10481000D02*
X11109000Y-10601000D01*
X11109000Y-10481000D02*
X10989000Y-10601000D01*
X11109000Y-10541000D02*
G75*
G03*
X11109000Y-10541000I-60000J0D01*
G01*
X11370000Y-10481000D02*
X11490000Y-10601000D01*
X11490000Y-10481000D02*
X11370000Y-10601000D01*
X11490000Y-10541000D02*
G75*
G03*
X11490000Y-10541000I-60000J0D01*
G01*
X12005000Y-10481000D02*
X12125000Y-10601000D01*
X12125000Y-10481000D02*
X12005000Y-10601000D01*
X12125000Y-10541000D02*
G75*
G03*
X12125000Y-10541000I-60000J0D01*
G01*
X12386000Y-10481000D02*
X12506000Y-10601000D01*
X12506000Y-10481000D02*
X12386000Y-10601000D01*
X12506000Y-10541000D02*
G75*
G03*
X12506000Y-10541000I-60000J0D01*
G01*
X3232000Y-6661000D02*
X3372000Y-6801000D01*
X3372000Y-6661000D02*
X3232000Y-6801000D01*
X3302000Y-6661000D02*
X3302000Y-6801000D01*
X3232000Y-6731000D02*
X3372000Y-6731000D01*
X4502000Y-6661000D02*
X4642000Y-6801000D01*
X4642000Y-6661000D02*
X4502000Y-6801000D01*
X4572000Y-6661000D02*
X4572000Y-6801000D01*
X4502000Y-6731000D02*
X4642000Y-6731000D01*
X2684800Y-4920000D02*
X3004800Y-5240000D01*
X3004800Y-4920000D02*
X2684800Y-5240000D01*
X2957938Y-5193138D02*
X2957938Y-4966862D01*
X2731662Y-4966862D01*
X2731662Y-5193138D01*
X2957938Y-5193138D01*
X2684800Y-11153000D02*
X3004800Y-11473000D01*
X3004800Y-11153000D02*
X2684800Y-11473000D01*
X2957938Y-11426138D02*
X2957938Y-11199862D01*
X2731662Y-11199862D01*
X2731662Y-11426138D01*
X2957938Y-11426138D01*
X12413000Y-4920000D02*
X12733000Y-5240000D01*
X12733000Y-4920000D02*
X12413000Y-5240000D01*
X12686138Y-5193138D02*
X12686138Y-4966862D01*
X12459862Y-4966862D01*
X12459862Y-5193138D01*
X12686138Y-5193138D01*
X12413000Y-11153000D02*
X12733000Y-11473000D01*
X12733000Y-11153000D02*
X12413000Y-11473000D01*
X12686138Y-11426138D02*
X12686138Y-11199862D01*
X12459862Y-11199862D01*
X12459862Y-11426138D01*
X12686138Y-11426138D01*
D12*
X2696928Y-12152214D02*
X2696928Y-11852214D01*
X2768357Y-11852214D01*
X2811214Y-11866500D01*
X2839786Y-11895071D01*
X2854071Y-11923643D01*
X2868357Y-11980786D01*
X2868357Y-12023643D01*
X2854071Y-12080786D01*
X2839786Y-12109357D01*
X2811214Y-12137929D01*
X2768357Y-12152214D01*
X2696928Y-12152214D01*
X2996928Y-12152214D02*
X2996928Y-11952214D01*
X2996928Y-12009357D02*
X3011214Y-11980786D01*
X3025500Y-11966500D01*
X3054071Y-11952214D01*
X3082643Y-11952214D01*
X3182643Y-12152214D02*
X3182643Y-11952214D01*
X3182643Y-11852214D02*
X3168357Y-11866500D01*
X3182643Y-11880786D01*
X3196928Y-11866500D01*
X3182643Y-11852214D01*
X3182643Y-11880786D01*
X3368357Y-12152214D02*
X3339786Y-12137929D01*
X3325500Y-12109357D01*
X3325500Y-11852214D01*
X3525500Y-12152214D02*
X3496928Y-12137929D01*
X3482643Y-12109357D01*
X3482643Y-11852214D01*
X3868357Y-12152214D02*
X3868357Y-11852214D01*
X3968357Y-12066500D01*
X4068357Y-11852214D01*
X4068357Y-12152214D01*
X4339786Y-12152214D02*
X4339786Y-11995071D01*
X4325500Y-11966500D01*
X4296928Y-11952214D01*
X4239786Y-11952214D01*
X4211214Y-11966500D01*
X4339786Y-12137929D02*
X4311214Y-12152214D01*
X4239786Y-12152214D01*
X4211214Y-12137929D01*
X4196928Y-12109357D01*
X4196928Y-12080786D01*
X4211214Y-12052214D01*
X4239786Y-12037929D01*
X4311214Y-12037929D01*
X4339786Y-12023643D01*
X4482643Y-11952214D02*
X4482643Y-12252214D01*
X4482643Y-11966500D02*
X4511214Y-11952214D01*
X4568357Y-11952214D01*
X4596928Y-11966500D01*
X4611214Y-11980786D01*
X4625500Y-12009357D01*
X4625500Y-12095071D01*
X4611214Y-12123643D01*
X4596928Y-12137929D01*
X4568357Y-12152214D01*
X4511214Y-12152214D01*
X4482643Y-12137929D01*
X4754071Y-12123643D02*
X4768357Y-12137929D01*
X4754071Y-12152214D01*
X4739786Y-12137929D01*
X4754071Y-12123643D01*
X4754071Y-12152214D01*
X4754071Y-11966500D02*
X4768357Y-11980786D01*
X4754071Y-11995071D01*
X4739786Y-11980786D01*
X4754071Y-11966500D01*
X4754071Y-11995071D01*
X2360500Y-12621500D02*
X2410500Y-12671500D01*
X2410500Y-12621500D02*
X2360500Y-12671500D01*
X2754071Y-12482214D02*
X2782643Y-12482214D01*
X2811214Y-12496500D01*
X2825500Y-12510786D01*
X2839786Y-12539357D01*
X2854071Y-12596500D01*
X2854071Y-12667929D01*
X2839786Y-12725071D01*
X2825500Y-12753643D01*
X2811214Y-12767929D01*
X2782643Y-12782214D01*
X2754071Y-12782214D01*
X2725500Y-12767929D01*
X2711214Y-12753643D01*
X2696928Y-12725071D01*
X2682643Y-12667929D01*
X2682643Y-12596500D01*
X2696928Y-12539357D01*
X2711214Y-12510786D01*
X2725500Y-12496500D01*
X2754071Y-12482214D01*
X2982643Y-12753643D02*
X2996928Y-12767929D01*
X2982643Y-12782214D01*
X2968357Y-12767929D01*
X2982643Y-12753643D01*
X2982643Y-12782214D01*
X3268357Y-12482214D02*
X3125500Y-12482214D01*
X3111214Y-12625071D01*
X3125500Y-12610786D01*
X3154071Y-12596500D01*
X3225500Y-12596500D01*
X3254071Y-12610786D01*
X3268357Y-12625071D01*
X3282643Y-12653643D01*
X3282643Y-12725071D01*
X3268357Y-12753643D01*
X3254071Y-12767929D01*
X3225500Y-12782214D01*
X3154071Y-12782214D01*
X3125500Y-12767929D01*
X3111214Y-12753643D01*
X3468357Y-12482214D02*
X3496928Y-12482214D01*
X3525500Y-12496500D01*
X3539786Y-12510786D01*
X3554071Y-12539357D01*
X3568357Y-12596500D01*
X3568357Y-12667929D01*
X3554071Y-12725071D01*
X3539786Y-12753643D01*
X3525500Y-12767929D01*
X3496928Y-12782214D01*
X3468357Y-12782214D01*
X3439786Y-12767929D01*
X3425500Y-12753643D01*
X3411214Y-12725071D01*
X3396928Y-12667929D01*
X3396928Y-12596500D01*
X3411214Y-12539357D01*
X3425500Y-12510786D01*
X3439786Y-12496500D01*
X3468357Y-12482214D01*
X3696928Y-12782214D02*
X3696928Y-12582214D01*
X3696928Y-12610786D02*
X3711214Y-12596500D01*
X3739786Y-12582214D01*
X3782643Y-12582214D01*
X3811214Y-12596500D01*
X3825500Y-12625071D01*
X3825500Y-12782214D01*
X3825500Y-12625071D02*
X3839786Y-12596500D01*
X3868357Y-12582214D01*
X3911214Y-12582214D01*
X3939786Y-12596500D01*
X3954071Y-12625071D01*
X3954071Y-12782214D01*
X4096928Y-12782214D02*
X4096928Y-12582214D01*
X4096928Y-12610786D02*
X4111214Y-12596500D01*
X4139786Y-12582214D01*
X4182643Y-12582214D01*
X4211214Y-12596500D01*
X4225500Y-12625071D01*
X4225500Y-12782214D01*
X4225500Y-12625071D02*
X4239786Y-12596500D01*
X4268357Y-12582214D01*
X4311214Y-12582214D01*
X4339786Y-12596500D01*
X4354071Y-12625071D01*
X4354071Y-12782214D01*
X4939786Y-12467929D02*
X4682643Y-12853643D01*
X5325500Y-12482214D02*
X5354071Y-12482214D01*
X5382643Y-12496500D01*
X5396928Y-12510786D01*
X5411214Y-12539357D01*
X5425500Y-12596500D01*
X5425500Y-12667929D01*
X5411214Y-12725071D01*
X5396928Y-12753643D01*
X5382643Y-12767929D01*
X5354071Y-12782214D01*
X5325500Y-12782214D01*
X5296928Y-12767929D01*
X5282643Y-12753643D01*
X5268357Y-12725071D01*
X5254071Y-12667929D01*
X5254071Y-12596500D01*
X5268357Y-12539357D01*
X5282643Y-12510786D01*
X5296928Y-12496500D01*
X5325500Y-12482214D01*
X5554071Y-12753643D02*
X5568357Y-12767929D01*
X5554071Y-12782214D01*
X5539786Y-12767929D01*
X5554071Y-12753643D01*
X5554071Y-12782214D01*
X5754071Y-12482214D02*
X5782643Y-12482214D01*
X5811214Y-12496500D01*
X5825500Y-12510786D01*
X5839786Y-12539357D01*
X5854071Y-12596500D01*
X5854071Y-12667929D01*
X5839786Y-12725071D01*
X5825500Y-12753643D01*
X5811214Y-12767929D01*
X5782643Y-12782214D01*
X5754071Y-12782214D01*
X5725500Y-12767929D01*
X5711214Y-12753643D01*
X5696928Y-12725071D01*
X5682643Y-12667929D01*
X5682643Y-12596500D01*
X5696928Y-12539357D01*
X5711214Y-12510786D01*
X5725500Y-12496500D01*
X5754071Y-12482214D01*
X5968357Y-12510786D02*
X5982643Y-12496500D01*
X6011214Y-12482214D01*
X6082643Y-12482214D01*
X6111214Y-12496500D01*
X6125500Y-12510786D01*
X6139786Y-12539357D01*
X6139786Y-12567929D01*
X6125500Y-12610786D01*
X5954071Y-12782214D01*
X6139786Y-12782214D01*
X6325500Y-12482214D02*
X6354071Y-12482214D01*
X6382643Y-12496500D01*
X6396928Y-12510786D01*
X6411214Y-12539357D01*
X6425500Y-12596500D01*
X6425500Y-12667929D01*
X6411214Y-12725071D01*
X6396928Y-12753643D01*
X6382643Y-12767929D01*
X6354071Y-12782214D01*
X6325500Y-12782214D01*
X6296928Y-12767929D01*
X6282643Y-12753643D01*
X6268357Y-12725071D01*
X6254071Y-12667929D01*
X6254071Y-12596500D01*
X6268357Y-12539357D01*
X6282643Y-12510786D01*
X6296928Y-12496500D01*
X6325500Y-12482214D01*
X6539786Y-12482214D02*
X6539786Y-12539357D01*
X6654071Y-12482214D02*
X6654071Y-12539357D01*
X7096928Y-12896500D02*
X7082643Y-12882214D01*
X7054071Y-12839357D01*
X7039786Y-12810786D01*
X7025500Y-12767929D01*
X7011214Y-12696500D01*
X7011214Y-12639357D01*
X7025500Y-12567929D01*
X7039786Y-12525071D01*
X7054071Y-12496500D01*
X7082643Y-12453643D01*
X7096928Y-12439357D01*
X7339786Y-12582214D02*
X7339786Y-12782214D01*
X7268357Y-12467929D02*
X7196928Y-12682214D01*
X7382643Y-12682214D01*
X7482643Y-12510786D02*
X7496928Y-12496500D01*
X7525500Y-12482214D01*
X7596928Y-12482214D01*
X7625500Y-12496500D01*
X7639786Y-12510786D01*
X7654071Y-12539357D01*
X7654071Y-12567929D01*
X7639786Y-12610786D01*
X7468357Y-12782214D01*
X7654071Y-12782214D01*
X8011214Y-12782214D02*
X8011214Y-12482214D01*
X8139786Y-12782214D02*
X8139786Y-12625071D01*
X8125500Y-12596500D01*
X8096928Y-12582214D01*
X8054071Y-12582214D01*
X8025500Y-12596500D01*
X8011214Y-12610786D01*
X8325500Y-12782214D02*
X8296928Y-12767929D01*
X8282643Y-12753643D01*
X8268357Y-12725071D01*
X8268357Y-12639357D01*
X8282643Y-12610786D01*
X8296928Y-12596500D01*
X8325500Y-12582214D01*
X8368357Y-12582214D01*
X8396928Y-12596500D01*
X8411214Y-12610786D01*
X8425500Y-12639357D01*
X8425500Y-12725071D01*
X8411214Y-12753643D01*
X8396928Y-12767929D01*
X8368357Y-12782214D01*
X8325500Y-12782214D01*
X8596928Y-12782214D02*
X8568357Y-12767929D01*
X8554071Y-12739357D01*
X8554071Y-12482214D01*
X8825500Y-12767929D02*
X8796928Y-12782214D01*
X8739786Y-12782214D01*
X8711214Y-12767929D01*
X8696928Y-12739357D01*
X8696928Y-12625071D01*
X8711214Y-12596500D01*
X8739786Y-12582214D01*
X8796928Y-12582214D01*
X8825500Y-12596500D01*
X8839786Y-12625071D01*
X8839786Y-12653643D01*
X8696928Y-12682214D01*
X8954071Y-12767929D02*
X8982643Y-12782214D01*
X9039786Y-12782214D01*
X9068357Y-12767929D01*
X9082643Y-12739357D01*
X9082643Y-12725071D01*
X9068357Y-12696500D01*
X9039786Y-12682214D01*
X8996928Y-12682214D01*
X8968357Y-12667929D01*
X8954071Y-12639357D01*
X8954071Y-12625071D01*
X8968357Y-12596500D01*
X8996928Y-12582214D01*
X9039786Y-12582214D01*
X9068357Y-12596500D01*
X9182643Y-12896500D02*
X9196928Y-12882214D01*
X9225500Y-12839357D01*
X9239786Y-12810786D01*
X9254071Y-12767929D01*
X9268357Y-12696500D01*
X9268357Y-12639357D01*
X9254071Y-12567929D01*
X9239786Y-12525071D01*
X9225500Y-12496500D01*
X9196928Y-12453643D01*
X9182643Y-12439357D01*
X2410500Y-13042500D02*
G75*
G03*
X2410500Y-13042500I-38100J0D01*
G01*
X2754071Y-12878214D02*
X2782643Y-12878214D01*
X2811214Y-12892500D01*
X2825500Y-12906786D01*
X2839786Y-12935357D01*
X2854071Y-12992500D01*
X2854071Y-13063929D01*
X2839786Y-13121071D01*
X2825500Y-13149643D01*
X2811214Y-13163929D01*
X2782643Y-13178214D01*
X2754071Y-13178214D01*
X2725500Y-13163929D01*
X2711214Y-13149643D01*
X2696928Y-13121071D01*
X2682643Y-13063929D01*
X2682643Y-12992500D01*
X2696928Y-12935357D01*
X2711214Y-12906786D01*
X2725500Y-12892500D01*
X2754071Y-12878214D01*
X2982643Y-13149643D02*
X2996928Y-13163929D01*
X2982643Y-13178214D01*
X2968357Y-13163929D01*
X2982643Y-13149643D01*
X2982643Y-13178214D01*
X3096928Y-12878214D02*
X3296928Y-12878214D01*
X3168357Y-13178214D01*
X3539786Y-12878214D02*
X3482643Y-12878214D01*
X3454071Y-12892500D01*
X3439786Y-12906786D01*
X3411214Y-12949643D01*
X3396928Y-13006786D01*
X3396928Y-13121071D01*
X3411214Y-13149643D01*
X3425500Y-13163929D01*
X3454071Y-13178214D01*
X3511214Y-13178214D01*
X3539786Y-13163929D01*
X3554071Y-13149643D01*
X3568357Y-13121071D01*
X3568357Y-13049643D01*
X3554071Y-13021071D01*
X3539786Y-13006786D01*
X3511214Y-12992500D01*
X3454071Y-12992500D01*
X3425500Y-13006786D01*
X3411214Y-13021071D01*
X3396928Y-13049643D01*
X3696928Y-13178214D02*
X3696928Y-12978214D01*
X3696928Y-13006786D02*
X3711214Y-12992500D01*
X3739786Y-12978214D01*
X3782643Y-12978214D01*
X3811214Y-12992500D01*
X3825500Y-13021071D01*
X3825500Y-13178214D01*
X3825500Y-13021071D02*
X3839786Y-12992500D01*
X3868357Y-12978214D01*
X3911214Y-12978214D01*
X3939786Y-12992500D01*
X3954071Y-13021071D01*
X3954071Y-13178214D01*
X4096928Y-13178214D02*
X4096928Y-12978214D01*
X4096928Y-13006786D02*
X4111214Y-12992500D01*
X4139786Y-12978214D01*
X4182643Y-12978214D01*
X4211214Y-12992500D01*
X4225500Y-13021071D01*
X4225500Y-13178214D01*
X4225500Y-13021071D02*
X4239786Y-12992500D01*
X4268357Y-12978214D01*
X4311214Y-12978214D01*
X4339786Y-12992500D01*
X4354071Y-13021071D01*
X4354071Y-13178214D01*
X4939786Y-12863929D02*
X4682643Y-13249643D01*
X5325500Y-12878214D02*
X5354071Y-12878214D01*
X5382643Y-12892500D01*
X5396928Y-12906786D01*
X5411214Y-12935357D01*
X5425500Y-12992500D01*
X5425500Y-13063929D01*
X5411214Y-13121071D01*
X5396928Y-13149643D01*
X5382643Y-13163929D01*
X5354071Y-13178214D01*
X5325500Y-13178214D01*
X5296928Y-13163929D01*
X5282643Y-13149643D01*
X5268357Y-13121071D01*
X5254071Y-13063929D01*
X5254071Y-12992500D01*
X5268357Y-12935357D01*
X5282643Y-12906786D01*
X5296928Y-12892500D01*
X5325500Y-12878214D01*
X5554071Y-13149643D02*
X5568357Y-13163929D01*
X5554071Y-13178214D01*
X5539786Y-13163929D01*
X5554071Y-13149643D01*
X5554071Y-13178214D01*
X5754071Y-12878214D02*
X5782643Y-12878214D01*
X5811214Y-12892500D01*
X5825500Y-12906786D01*
X5839786Y-12935357D01*
X5854071Y-12992500D01*
X5854071Y-13063929D01*
X5839786Y-13121071D01*
X5825500Y-13149643D01*
X5811214Y-13163929D01*
X5782643Y-13178214D01*
X5754071Y-13178214D01*
X5725500Y-13163929D01*
X5711214Y-13149643D01*
X5696928Y-13121071D01*
X5682643Y-13063929D01*
X5682643Y-12992500D01*
X5696928Y-12935357D01*
X5711214Y-12906786D01*
X5725500Y-12892500D01*
X5754071Y-12878214D01*
X5954071Y-12878214D02*
X6139786Y-12878214D01*
X6039786Y-12992500D01*
X6082643Y-12992500D01*
X6111214Y-13006786D01*
X6125500Y-13021071D01*
X6139786Y-13049643D01*
X6139786Y-13121071D01*
X6125500Y-13149643D01*
X6111214Y-13163929D01*
X6082643Y-13178214D01*
X5996928Y-13178214D01*
X5968357Y-13163929D01*
X5954071Y-13149643D01*
X6325500Y-12878214D02*
X6354071Y-12878214D01*
X6382643Y-12892500D01*
X6396928Y-12906786D01*
X6411214Y-12935357D01*
X6425500Y-12992500D01*
X6425500Y-13063929D01*
X6411214Y-13121071D01*
X6396928Y-13149643D01*
X6382643Y-13163929D01*
X6354071Y-13178214D01*
X6325500Y-13178214D01*
X6296928Y-13163929D01*
X6282643Y-13149643D01*
X6268357Y-13121071D01*
X6254071Y-13063929D01*
X6254071Y-12992500D01*
X6268357Y-12935357D01*
X6282643Y-12906786D01*
X6296928Y-12892500D01*
X6325500Y-12878214D01*
X6539786Y-12878214D02*
X6539786Y-12935357D01*
X6654071Y-12878214D02*
X6654071Y-12935357D01*
X7096928Y-13292500D02*
X7082643Y-13278214D01*
X7054071Y-13235357D01*
X7039786Y-13206786D01*
X7025500Y-13163929D01*
X7011214Y-13092500D01*
X7011214Y-13035357D01*
X7025500Y-12963929D01*
X7039786Y-12921071D01*
X7054071Y-12892500D01*
X7082643Y-12849643D01*
X7096928Y-12835357D01*
X7339786Y-12978214D02*
X7339786Y-13178214D01*
X7268357Y-12863929D02*
X7196928Y-13078214D01*
X7382643Y-13078214D01*
X7725500Y-13178214D02*
X7725500Y-12878214D01*
X7854071Y-13178214D02*
X7854071Y-13021071D01*
X7839786Y-12992500D01*
X7811214Y-12978214D01*
X7768357Y-12978214D01*
X7739786Y-12992500D01*
X7725500Y-13006786D01*
X8039786Y-13178214D02*
X8011214Y-13163929D01*
X7996928Y-13149643D01*
X7982643Y-13121071D01*
X7982643Y-13035357D01*
X7996928Y-13006786D01*
X8011214Y-12992500D01*
X8039786Y-12978214D01*
X8082643Y-12978214D01*
X8111214Y-12992500D01*
X8125500Y-13006786D01*
X8139786Y-13035357D01*
X8139786Y-13121071D01*
X8125500Y-13149643D01*
X8111214Y-13163929D01*
X8082643Y-13178214D01*
X8039786Y-13178214D01*
X8311214Y-13178214D02*
X8282643Y-13163929D01*
X8268357Y-13135357D01*
X8268357Y-12878214D01*
X8539786Y-13163929D02*
X8511214Y-13178214D01*
X8454071Y-13178214D01*
X8425500Y-13163929D01*
X8411214Y-13135357D01*
X8411214Y-13021071D01*
X8425500Y-12992500D01*
X8454071Y-12978214D01*
X8511214Y-12978214D01*
X8539786Y-12992500D01*
X8554071Y-13021071D01*
X8554071Y-13049643D01*
X8411214Y-13078214D01*
X8668357Y-13163929D02*
X8696928Y-13178214D01*
X8754071Y-13178214D01*
X8782643Y-13163929D01*
X8796928Y-13135357D01*
X8796928Y-13121071D01*
X8782643Y-13092500D01*
X8754071Y-13078214D01*
X8711214Y-13078214D01*
X8682643Y-13063929D01*
X8668357Y-13035357D01*
X8668357Y-13021071D01*
X8682643Y-12992500D01*
X8711214Y-12978214D01*
X8754071Y-12978214D01*
X8782643Y-12992500D01*
X8896928Y-13292500D02*
X8911214Y-13278214D01*
X8939786Y-13235357D01*
X8954071Y-13206786D01*
X8968357Y-13163929D01*
X8982643Y-13092500D01*
X8982643Y-13035357D01*
X8968357Y-12963929D01*
X8954071Y-12921071D01*
X8939786Y-12892500D01*
X8911214Y-12849643D01*
X8896928Y-12835357D01*
X2370500Y-13398500D02*
X2370500Y-13478500D01*
X2330500Y-13438500D02*
X2410500Y-13438500D01*
X2754071Y-13274214D02*
X2782643Y-13274214D01*
X2811214Y-13288500D01*
X2825500Y-13302786D01*
X2839786Y-13331357D01*
X2854071Y-13388500D01*
X2854071Y-13459929D01*
X2839786Y-13517071D01*
X2825500Y-13545643D01*
X2811214Y-13559929D01*
X2782643Y-13574214D01*
X2754071Y-13574214D01*
X2725500Y-13559929D01*
X2711214Y-13545643D01*
X2696928Y-13517071D01*
X2682643Y-13459929D01*
X2682643Y-13388500D01*
X2696928Y-13331357D01*
X2711214Y-13302786D01*
X2725500Y-13288500D01*
X2754071Y-13274214D01*
X2982643Y-13545643D02*
X2996928Y-13559929D01*
X2982643Y-13574214D01*
X2968357Y-13559929D01*
X2982643Y-13545643D01*
X2982643Y-13574214D01*
X3168357Y-13402786D02*
X3139786Y-13388500D01*
X3125500Y-13374214D01*
X3111214Y-13345643D01*
X3111214Y-13331357D01*
X3125500Y-13302786D01*
X3139786Y-13288500D01*
X3168357Y-13274214D01*
X3225500Y-13274214D01*
X3254071Y-13288500D01*
X3268357Y-13302786D01*
X3282643Y-13331357D01*
X3282643Y-13345643D01*
X3268357Y-13374214D01*
X3254071Y-13388500D01*
X3225500Y-13402786D01*
X3168357Y-13402786D01*
X3139786Y-13417071D01*
X3125500Y-13431357D01*
X3111214Y-13459929D01*
X3111214Y-13517071D01*
X3125500Y-13545643D01*
X3139786Y-13559929D01*
X3168357Y-13574214D01*
X3225500Y-13574214D01*
X3254071Y-13559929D01*
X3268357Y-13545643D01*
X3282643Y-13517071D01*
X3282643Y-13459929D01*
X3268357Y-13431357D01*
X3254071Y-13417071D01*
X3225500Y-13402786D01*
X3468357Y-13274214D02*
X3496928Y-13274214D01*
X3525500Y-13288500D01*
X3539786Y-13302786D01*
X3554071Y-13331357D01*
X3568357Y-13388500D01*
X3568357Y-13459929D01*
X3554071Y-13517071D01*
X3539786Y-13545643D01*
X3525500Y-13559929D01*
X3496928Y-13574214D01*
X3468357Y-13574214D01*
X3439786Y-13559929D01*
X3425500Y-13545643D01*
X3411214Y-13517071D01*
X3396928Y-13459929D01*
X3396928Y-13388500D01*
X3411214Y-13331357D01*
X3425500Y-13302786D01*
X3439786Y-13288500D01*
X3468357Y-13274214D01*
X3696928Y-13574214D02*
X3696928Y-13374214D01*
X3696928Y-13402786D02*
X3711214Y-13388500D01*
X3739786Y-13374214D01*
X3782643Y-13374214D01*
X3811214Y-13388500D01*
X3825500Y-13417071D01*
X3825500Y-13574214D01*
X3825500Y-13417071D02*
X3839786Y-13388500D01*
X3868357Y-13374214D01*
X3911214Y-13374214D01*
X3939786Y-13388500D01*
X3954071Y-13417071D01*
X3954071Y-13574214D01*
X4096928Y-13574214D02*
X4096928Y-13374214D01*
X4096928Y-13402786D02*
X4111214Y-13388500D01*
X4139786Y-13374214D01*
X4182643Y-13374214D01*
X4211214Y-13388500D01*
X4225500Y-13417071D01*
X4225500Y-13574214D01*
X4225500Y-13417071D02*
X4239786Y-13388500D01*
X4268357Y-13374214D01*
X4311214Y-13374214D01*
X4339786Y-13388500D01*
X4354071Y-13417071D01*
X4354071Y-13574214D01*
X4939786Y-13259929D02*
X4682643Y-13645643D01*
X5325500Y-13274214D02*
X5354071Y-13274214D01*
X5382643Y-13288500D01*
X5396928Y-13302786D01*
X5411214Y-13331357D01*
X5425500Y-13388500D01*
X5425500Y-13459929D01*
X5411214Y-13517071D01*
X5396928Y-13545643D01*
X5382643Y-13559929D01*
X5354071Y-13574214D01*
X5325500Y-13574214D01*
X5296928Y-13559929D01*
X5282643Y-13545643D01*
X5268357Y-13517071D01*
X5254071Y-13459929D01*
X5254071Y-13388500D01*
X5268357Y-13331357D01*
X5282643Y-13302786D01*
X5296928Y-13288500D01*
X5325500Y-13274214D01*
X5554071Y-13545643D02*
X5568357Y-13559929D01*
X5554071Y-13574214D01*
X5539786Y-13559929D01*
X5554071Y-13545643D01*
X5554071Y-13574214D01*
X5754071Y-13274214D02*
X5782643Y-13274214D01*
X5811214Y-13288500D01*
X5825500Y-13302786D01*
X5839786Y-13331357D01*
X5854071Y-13388500D01*
X5854071Y-13459929D01*
X5839786Y-13517071D01*
X5825500Y-13545643D01*
X5811214Y-13559929D01*
X5782643Y-13574214D01*
X5754071Y-13574214D01*
X5725500Y-13559929D01*
X5711214Y-13545643D01*
X5696928Y-13517071D01*
X5682643Y-13459929D01*
X5682643Y-13388500D01*
X5696928Y-13331357D01*
X5711214Y-13302786D01*
X5725500Y-13288500D01*
X5754071Y-13274214D01*
X5954071Y-13274214D02*
X6139786Y-13274214D01*
X6039786Y-13388500D01*
X6082643Y-13388500D01*
X6111214Y-13402786D01*
X6125500Y-13417071D01*
X6139786Y-13445643D01*
X6139786Y-13517071D01*
X6125500Y-13545643D01*
X6111214Y-13559929D01*
X6082643Y-13574214D01*
X5996928Y-13574214D01*
X5968357Y-13559929D01*
X5954071Y-13545643D01*
X6425500Y-13574214D02*
X6254071Y-13574214D01*
X6339786Y-13574214D02*
X6339786Y-13274214D01*
X6311214Y-13317071D01*
X6282643Y-13345643D01*
X6254071Y-13359929D01*
X6539786Y-13274214D02*
X6539786Y-13331357D01*
X6654071Y-13274214D02*
X6654071Y-13331357D01*
X7096928Y-13688500D02*
X7082643Y-13674214D01*
X7054071Y-13631357D01*
X7039786Y-13602786D01*
X7025500Y-13559929D01*
X7011214Y-13488500D01*
X7011214Y-13431357D01*
X7025500Y-13359929D01*
X7039786Y-13317071D01*
X7054071Y-13288500D01*
X7082643Y-13245643D01*
X7096928Y-13231357D01*
X7196928Y-13302786D02*
X7211214Y-13288500D01*
X7239786Y-13274214D01*
X7311214Y-13274214D01*
X7339786Y-13288500D01*
X7354071Y-13302786D01*
X7368357Y-13331357D01*
X7368357Y-13359929D01*
X7354071Y-13402786D01*
X7182643Y-13574214D01*
X7368357Y-13574214D01*
X7482643Y-13302786D02*
X7496928Y-13288500D01*
X7525500Y-13274214D01*
X7596928Y-13274214D01*
X7625500Y-13288500D01*
X7639786Y-13302786D01*
X7654071Y-13331357D01*
X7654071Y-13359929D01*
X7639786Y-13402786D01*
X7468357Y-13574214D01*
X7654071Y-13574214D01*
X8011214Y-13574214D02*
X8011214Y-13274214D01*
X8139786Y-13574214D02*
X8139786Y-13417071D01*
X8125500Y-13388500D01*
X8096928Y-13374214D01*
X8054071Y-13374214D01*
X8025500Y-13388500D01*
X8011214Y-13402786D01*
X8325500Y-13574214D02*
X8296928Y-13559929D01*
X8282643Y-13545643D01*
X8268357Y-13517071D01*
X8268357Y-13431357D01*
X8282643Y-13402786D01*
X8296928Y-13388500D01*
X8325500Y-13374214D01*
X8368357Y-13374214D01*
X8396928Y-13388500D01*
X8411214Y-13402786D01*
X8425500Y-13431357D01*
X8425500Y-13517071D01*
X8411214Y-13545643D01*
X8396928Y-13559929D01*
X8368357Y-13574214D01*
X8325500Y-13574214D01*
X8596928Y-13574214D02*
X8568357Y-13559929D01*
X8554071Y-13531357D01*
X8554071Y-13274214D01*
X8825500Y-13559929D02*
X8796928Y-13574214D01*
X8739786Y-13574214D01*
X8711214Y-13559929D01*
X8696928Y-13531357D01*
X8696928Y-13417071D01*
X8711214Y-13388500D01*
X8739786Y-13374214D01*
X8796928Y-13374214D01*
X8825500Y-13388500D01*
X8839786Y-13417071D01*
X8839786Y-13445643D01*
X8696928Y-13474214D01*
X8954071Y-13559929D02*
X8982643Y-13574214D01*
X9039786Y-13574214D01*
X9068357Y-13559929D01*
X9082643Y-13531357D01*
X9082643Y-13517071D01*
X9068357Y-13488500D01*
X9039786Y-13474214D01*
X8996928Y-13474214D01*
X8968357Y-13459929D01*
X8954071Y-13431357D01*
X8954071Y-13417071D01*
X8968357Y-13388500D01*
X8996928Y-13374214D01*
X9039786Y-13374214D01*
X9068357Y-13388500D01*
X9182643Y-13688500D02*
X9196928Y-13674214D01*
X9225500Y-13631357D01*
X9239786Y-13602786D01*
X9254071Y-13559929D01*
X9268357Y-13488500D01*
X9268357Y-13431357D01*
X9254071Y-13359929D01*
X9239786Y-13317071D01*
X9225500Y-13288500D01*
X9196928Y-13245643D01*
X9182643Y-13231357D01*
X2397320Y-13866320D02*
X2397320Y-13802680D01*
X2333680Y-13802680D01*
X2333680Y-13866320D01*
X2397320Y-13866320D01*
X2754071Y-13670214D02*
X2782643Y-13670214D01*
X2811214Y-13684500D01*
X2825500Y-13698786D01*
X2839786Y-13727357D01*
X2854071Y-13784500D01*
X2854071Y-13855929D01*
X2839786Y-13913071D01*
X2825500Y-13941643D01*
X2811214Y-13955929D01*
X2782643Y-13970214D01*
X2754071Y-13970214D01*
X2725500Y-13955929D01*
X2711214Y-13941643D01*
X2696928Y-13913071D01*
X2682643Y-13855929D01*
X2682643Y-13784500D01*
X2696928Y-13727357D01*
X2711214Y-13698786D01*
X2725500Y-13684500D01*
X2754071Y-13670214D01*
X2982643Y-13941643D02*
X2996928Y-13955929D01*
X2982643Y-13970214D01*
X2968357Y-13955929D01*
X2982643Y-13941643D01*
X2982643Y-13970214D01*
X3139786Y-13970214D02*
X3196928Y-13970214D01*
X3225500Y-13955929D01*
X3239786Y-13941643D01*
X3268357Y-13898786D01*
X3282643Y-13841643D01*
X3282643Y-13727357D01*
X3268357Y-13698786D01*
X3254071Y-13684500D01*
X3225500Y-13670214D01*
X3168357Y-13670214D01*
X3139786Y-13684500D01*
X3125500Y-13698786D01*
X3111214Y-13727357D01*
X3111214Y-13798786D01*
X3125500Y-13827357D01*
X3139786Y-13841643D01*
X3168357Y-13855929D01*
X3225500Y-13855929D01*
X3254071Y-13841643D01*
X3268357Y-13827357D01*
X3282643Y-13798786D01*
X3468357Y-13670214D02*
X3496928Y-13670214D01*
X3525500Y-13684500D01*
X3539786Y-13698786D01*
X3554071Y-13727357D01*
X3568357Y-13784500D01*
X3568357Y-13855929D01*
X3554071Y-13913071D01*
X3539786Y-13941643D01*
X3525500Y-13955929D01*
X3496928Y-13970214D01*
X3468357Y-13970214D01*
X3439786Y-13955929D01*
X3425500Y-13941643D01*
X3411214Y-13913071D01*
X3396928Y-13855929D01*
X3396928Y-13784500D01*
X3411214Y-13727357D01*
X3425500Y-13698786D01*
X3439786Y-13684500D01*
X3468357Y-13670214D01*
X3696928Y-13970214D02*
X3696928Y-13770214D01*
X3696928Y-13798786D02*
X3711214Y-13784500D01*
X3739786Y-13770214D01*
X3782643Y-13770214D01*
X3811214Y-13784500D01*
X3825500Y-13813071D01*
X3825500Y-13970214D01*
X3825500Y-13813071D02*
X3839786Y-13784500D01*
X3868357Y-13770214D01*
X3911214Y-13770214D01*
X3939786Y-13784500D01*
X3954071Y-13813071D01*
X3954071Y-13970214D01*
X4096928Y-13970214D02*
X4096928Y-13770214D01*
X4096928Y-13798786D02*
X4111214Y-13784500D01*
X4139786Y-13770214D01*
X4182643Y-13770214D01*
X4211214Y-13784500D01*
X4225500Y-13813071D01*
X4225500Y-13970214D01*
X4225500Y-13813071D02*
X4239786Y-13784500D01*
X4268357Y-13770214D01*
X4311214Y-13770214D01*
X4339786Y-13784500D01*
X4354071Y-13813071D01*
X4354071Y-13970214D01*
X4939786Y-13655929D02*
X4682643Y-14041643D01*
X5325500Y-13670214D02*
X5354071Y-13670214D01*
X5382643Y-13684500D01*
X5396928Y-13698786D01*
X5411214Y-13727357D01*
X5425500Y-13784500D01*
X5425500Y-13855929D01*
X5411214Y-13913071D01*
X5396928Y-13941643D01*
X5382643Y-13955929D01*
X5354071Y-13970214D01*
X5325500Y-13970214D01*
X5296928Y-13955929D01*
X5282643Y-13941643D01*
X5268357Y-13913071D01*
X5254071Y-13855929D01*
X5254071Y-13784500D01*
X5268357Y-13727357D01*
X5282643Y-13698786D01*
X5296928Y-13684500D01*
X5325500Y-13670214D01*
X5554071Y-13941643D02*
X5568357Y-13955929D01*
X5554071Y-13970214D01*
X5539786Y-13955929D01*
X5554071Y-13941643D01*
X5554071Y-13970214D01*
X5754071Y-13670214D02*
X5782643Y-13670214D01*
X5811214Y-13684500D01*
X5825500Y-13698786D01*
X5839786Y-13727357D01*
X5854071Y-13784500D01*
X5854071Y-13855929D01*
X5839786Y-13913071D01*
X5825500Y-13941643D01*
X5811214Y-13955929D01*
X5782643Y-13970214D01*
X5754071Y-13970214D01*
X5725500Y-13955929D01*
X5711214Y-13941643D01*
X5696928Y-13913071D01*
X5682643Y-13855929D01*
X5682643Y-13784500D01*
X5696928Y-13727357D01*
X5711214Y-13698786D01*
X5725500Y-13684500D01*
X5754071Y-13670214D01*
X5954071Y-13670214D02*
X6139786Y-13670214D01*
X6039786Y-13784500D01*
X6082643Y-13784500D01*
X6111214Y-13798786D01*
X6125500Y-13813071D01*
X6139786Y-13841643D01*
X6139786Y-13913071D01*
X6125500Y-13941643D01*
X6111214Y-13955929D01*
X6082643Y-13970214D01*
X5996928Y-13970214D01*
X5968357Y-13955929D01*
X5954071Y-13941643D01*
X6411214Y-13670214D02*
X6268357Y-13670214D01*
X6254071Y-13813071D01*
X6268357Y-13798786D01*
X6296928Y-13784500D01*
X6368357Y-13784500D01*
X6396928Y-13798786D01*
X6411214Y-13813071D01*
X6425500Y-13841643D01*
X6425500Y-13913071D01*
X6411214Y-13941643D01*
X6396928Y-13955929D01*
X6368357Y-13970214D01*
X6296928Y-13970214D01*
X6268357Y-13955929D01*
X6254071Y-13941643D01*
X6539786Y-13670214D02*
X6539786Y-13727357D01*
X6654071Y-13670214D02*
X6654071Y-13727357D01*
X7096928Y-14084500D02*
X7082643Y-14070214D01*
X7054071Y-14027357D01*
X7039786Y-13998786D01*
X7025500Y-13955929D01*
X7011214Y-13884500D01*
X7011214Y-13827357D01*
X7025500Y-13755929D01*
X7039786Y-13713071D01*
X7054071Y-13684500D01*
X7082643Y-13641643D01*
X7096928Y-13627357D01*
X7196928Y-13698786D02*
X7211214Y-13684500D01*
X7239786Y-13670214D01*
X7311214Y-13670214D01*
X7339786Y-13684500D01*
X7354071Y-13698786D01*
X7368357Y-13727357D01*
X7368357Y-13755929D01*
X7354071Y-13798786D01*
X7182643Y-13970214D01*
X7368357Y-13970214D01*
X7482643Y-13698786D02*
X7496928Y-13684500D01*
X7525500Y-13670214D01*
X7596928Y-13670214D01*
X7625500Y-13684500D01*
X7639786Y-13698786D01*
X7654071Y-13727357D01*
X7654071Y-13755929D01*
X7639786Y-13798786D01*
X7468357Y-13970214D01*
X7654071Y-13970214D01*
X8011214Y-13970214D02*
X8011214Y-13670214D01*
X8139786Y-13970214D02*
X8139786Y-13813071D01*
X8125500Y-13784500D01*
X8096928Y-13770214D01*
X8054071Y-13770214D01*
X8025500Y-13784500D01*
X8011214Y-13798786D01*
X8325500Y-13970214D02*
X8296928Y-13955929D01*
X8282643Y-13941643D01*
X8268357Y-13913071D01*
X8268357Y-13827357D01*
X8282643Y-13798786D01*
X8296928Y-13784500D01*
X8325500Y-13770214D01*
X8368357Y-13770214D01*
X8396928Y-13784500D01*
X8411214Y-13798786D01*
X8425500Y-13827357D01*
X8425500Y-13913071D01*
X8411214Y-13941643D01*
X8396928Y-13955929D01*
X8368357Y-13970214D01*
X8325500Y-13970214D01*
X8596928Y-13970214D02*
X8568357Y-13955929D01*
X8554071Y-13927357D01*
X8554071Y-13670214D01*
X8825500Y-13955929D02*
X8796928Y-13970214D01*
X8739786Y-13970214D01*
X8711214Y-13955929D01*
X8696928Y-13927357D01*
X8696928Y-13813071D01*
X8711214Y-13784500D01*
X8739786Y-13770214D01*
X8796928Y-13770214D01*
X8825500Y-13784500D01*
X8839786Y-13813071D01*
X8839786Y-13841643D01*
X8696928Y-13870214D01*
X8954071Y-13955929D02*
X8982643Y-13970214D01*
X9039786Y-13970214D01*
X9068357Y-13955929D01*
X9082643Y-13927357D01*
X9082643Y-13913071D01*
X9068357Y-13884500D01*
X9039786Y-13870214D01*
X8996928Y-13870214D01*
X8968357Y-13855929D01*
X8954071Y-13827357D01*
X8954071Y-13813071D01*
X8968357Y-13784500D01*
X8996928Y-13770214D01*
X9039786Y-13770214D01*
X9068357Y-13784500D01*
X9182643Y-14084500D02*
X9196928Y-14070214D01*
X9225500Y-14027357D01*
X9239786Y-13998786D01*
X9254071Y-13955929D01*
X9268357Y-13884500D01*
X9268357Y-13827357D01*
X9254071Y-13755929D01*
X9239786Y-13713071D01*
X9225500Y-13684500D01*
X9196928Y-13641643D01*
X9182643Y-13627357D01*
X2355500Y-14285500D02*
X2410500Y-14230500D01*
X2355500Y-14175500D01*
X2300500Y-14230500D01*
X2355500Y-14285500D01*
X2854071Y-14366214D02*
X2682643Y-14366214D01*
X2768357Y-14366214D02*
X2768357Y-14066214D01*
X2739786Y-14109071D01*
X2711214Y-14137643D01*
X2682643Y-14151929D01*
X2982643Y-14337643D02*
X2996928Y-14351929D01*
X2982643Y-14366214D01*
X2968357Y-14351929D01*
X2982643Y-14337643D01*
X2982643Y-14366214D01*
X3282643Y-14366214D02*
X3111214Y-14366214D01*
X3196928Y-14366214D02*
X3196928Y-14066214D01*
X3168357Y-14109071D01*
X3139786Y-14137643D01*
X3111214Y-14151929D01*
X3468357Y-14066214D02*
X3496928Y-14066214D01*
X3525500Y-14080500D01*
X3539786Y-14094786D01*
X3554071Y-14123357D01*
X3568357Y-14180500D01*
X3568357Y-14251929D01*
X3554071Y-14309071D01*
X3539786Y-14337643D01*
X3525500Y-14351929D01*
X3496928Y-14366214D01*
X3468357Y-14366214D01*
X3439786Y-14351929D01*
X3425500Y-14337643D01*
X3411214Y-14309071D01*
X3396928Y-14251929D01*
X3396928Y-14180500D01*
X3411214Y-14123357D01*
X3425500Y-14094786D01*
X3439786Y-14080500D01*
X3468357Y-14066214D01*
X3696928Y-14366214D02*
X3696928Y-14166214D01*
X3696928Y-14194786D02*
X3711214Y-14180500D01*
X3739786Y-14166214D01*
X3782643Y-14166214D01*
X3811214Y-14180500D01*
X3825500Y-14209071D01*
X3825500Y-14366214D01*
X3825500Y-14209071D02*
X3839786Y-14180500D01*
X3868357Y-14166214D01*
X3911214Y-14166214D01*
X3939786Y-14180500D01*
X3954071Y-14209071D01*
X3954071Y-14366214D01*
X4096928Y-14366214D02*
X4096928Y-14166214D01*
X4096928Y-14194786D02*
X4111214Y-14180500D01*
X4139786Y-14166214D01*
X4182643Y-14166214D01*
X4211214Y-14180500D01*
X4225500Y-14209071D01*
X4225500Y-14366214D01*
X4225500Y-14209071D02*
X4239786Y-14180500D01*
X4268357Y-14166214D01*
X4311214Y-14166214D01*
X4339786Y-14180500D01*
X4354071Y-14209071D01*
X4354071Y-14366214D01*
X4939786Y-14051929D02*
X4682643Y-14437643D01*
X5325500Y-14066214D02*
X5354071Y-14066214D01*
X5382643Y-14080500D01*
X5396928Y-14094786D01*
X5411214Y-14123357D01*
X5425500Y-14180500D01*
X5425500Y-14251929D01*
X5411214Y-14309071D01*
X5396928Y-14337643D01*
X5382643Y-14351929D01*
X5354071Y-14366214D01*
X5325500Y-14366214D01*
X5296928Y-14351929D01*
X5282643Y-14337643D01*
X5268357Y-14309071D01*
X5254071Y-14251929D01*
X5254071Y-14180500D01*
X5268357Y-14123357D01*
X5282643Y-14094786D01*
X5296928Y-14080500D01*
X5325500Y-14066214D01*
X5554071Y-14337643D02*
X5568357Y-14351929D01*
X5554071Y-14366214D01*
X5539786Y-14351929D01*
X5554071Y-14337643D01*
X5554071Y-14366214D01*
X5754071Y-14066214D02*
X5782643Y-14066214D01*
X5811214Y-14080500D01*
X5825500Y-14094786D01*
X5839786Y-14123357D01*
X5854071Y-14180500D01*
X5854071Y-14251929D01*
X5839786Y-14309071D01*
X5825500Y-14337643D01*
X5811214Y-14351929D01*
X5782643Y-14366214D01*
X5754071Y-14366214D01*
X5725500Y-14351929D01*
X5711214Y-14337643D01*
X5696928Y-14309071D01*
X5682643Y-14251929D01*
X5682643Y-14180500D01*
X5696928Y-14123357D01*
X5711214Y-14094786D01*
X5725500Y-14080500D01*
X5754071Y-14066214D01*
X6111214Y-14166214D02*
X6111214Y-14366214D01*
X6039786Y-14051929D02*
X5968357Y-14266214D01*
X6154071Y-14266214D01*
X6239786Y-14066214D02*
X6425500Y-14066214D01*
X6325500Y-14180500D01*
X6368357Y-14180500D01*
X6396928Y-14194786D01*
X6411214Y-14209071D01*
X6425500Y-14237643D01*
X6425500Y-14309071D01*
X6411214Y-14337643D01*
X6396928Y-14351929D01*
X6368357Y-14366214D01*
X6282643Y-14366214D01*
X6254071Y-14351929D01*
X6239786Y-14337643D01*
X6539786Y-14066214D02*
X6539786Y-14123357D01*
X6654071Y-14066214D02*
X6654071Y-14123357D01*
X7096928Y-14480500D02*
X7082643Y-14466214D01*
X7054071Y-14423357D01*
X7039786Y-14394786D01*
X7025500Y-14351929D01*
X7011214Y-14280500D01*
X7011214Y-14223357D01*
X7025500Y-14151929D01*
X7039786Y-14109071D01*
X7054071Y-14080500D01*
X7082643Y-14037643D01*
X7096928Y-14023357D01*
X7196928Y-14094786D02*
X7211214Y-14080500D01*
X7239786Y-14066214D01*
X7311214Y-14066214D01*
X7339786Y-14080500D01*
X7354071Y-14094786D01*
X7368357Y-14123357D01*
X7368357Y-14151929D01*
X7354071Y-14194786D01*
X7182643Y-14366214D01*
X7368357Y-14366214D01*
X7554071Y-14066214D02*
X7582643Y-14066214D01*
X7611214Y-14080500D01*
X7625500Y-14094786D01*
X7639786Y-14123357D01*
X7654071Y-14180500D01*
X7654071Y-14251929D01*
X7639786Y-14309071D01*
X7625500Y-14337643D01*
X7611214Y-14351929D01*
X7582643Y-14366214D01*
X7554071Y-14366214D01*
X7525500Y-14351929D01*
X7511214Y-14337643D01*
X7496928Y-14309071D01*
X7482643Y-14251929D01*
X7482643Y-14180500D01*
X7496928Y-14123357D01*
X7511214Y-14094786D01*
X7525500Y-14080500D01*
X7554071Y-14066214D01*
X8011214Y-14366214D02*
X8011214Y-14066214D01*
X8139786Y-14366214D02*
X8139786Y-14209071D01*
X8125500Y-14180500D01*
X8096928Y-14166214D01*
X8054071Y-14166214D01*
X8025500Y-14180500D01*
X8011214Y-14194786D01*
X8325500Y-14366214D02*
X8296928Y-14351929D01*
X8282643Y-14337643D01*
X8268357Y-14309071D01*
X8268357Y-14223357D01*
X8282643Y-14194786D01*
X8296928Y-14180500D01*
X8325500Y-14166214D01*
X8368357Y-14166214D01*
X8396928Y-14180500D01*
X8411214Y-14194786D01*
X8425500Y-14223357D01*
X8425500Y-14309071D01*
X8411214Y-14337643D01*
X8396928Y-14351929D01*
X8368357Y-14366214D01*
X8325500Y-14366214D01*
X8596928Y-14366214D02*
X8568357Y-14351929D01*
X8554071Y-14323357D01*
X8554071Y-14066214D01*
X8825500Y-14351929D02*
X8796928Y-14366214D01*
X8739786Y-14366214D01*
X8711214Y-14351929D01*
X8696928Y-14323357D01*
X8696928Y-14209071D01*
X8711214Y-14180500D01*
X8739786Y-14166214D01*
X8796928Y-14166214D01*
X8825500Y-14180500D01*
X8839786Y-14209071D01*
X8839786Y-14237643D01*
X8696928Y-14266214D01*
X8954071Y-14351929D02*
X8982643Y-14366214D01*
X9039786Y-14366214D01*
X9068357Y-14351929D01*
X9082643Y-14323357D01*
X9082643Y-14309071D01*
X9068357Y-14280500D01*
X9039786Y-14266214D01*
X8996928Y-14266214D01*
X8968357Y-14251929D01*
X8954071Y-14223357D01*
X8954071Y-14209071D01*
X8968357Y-14180500D01*
X8996928Y-14166214D01*
X9039786Y-14166214D01*
X9068357Y-14180500D01*
X9182643Y-14480500D02*
X9196928Y-14466214D01*
X9225500Y-14423357D01*
X9239786Y-14394786D01*
X9254071Y-14351929D01*
X9268357Y-14280500D01*
X9268357Y-14223357D01*
X9254071Y-14151929D01*
X9239786Y-14109071D01*
X9225500Y-14080500D01*
X9196928Y-14037643D01*
X9182643Y-14023357D01*
X2290500Y-14566500D02*
X2410500Y-14686500D01*
X2410500Y-14566500D02*
X2290500Y-14686500D01*
X2410500Y-14626500D02*
G75*
G03*
X2410500Y-14626500I-60000J0D01*
G01*
X2854071Y-14762214D02*
X2682643Y-14762214D01*
X2768357Y-14762214D02*
X2768357Y-14462214D01*
X2739786Y-14505071D01*
X2711214Y-14533643D01*
X2682643Y-14547929D01*
X2982643Y-14733643D02*
X2996928Y-14747929D01*
X2982643Y-14762214D01*
X2968357Y-14747929D01*
X2982643Y-14733643D01*
X2982643Y-14762214D01*
X3111214Y-14490786D02*
X3125500Y-14476500D01*
X3154071Y-14462214D01*
X3225500Y-14462214D01*
X3254071Y-14476500D01*
X3268357Y-14490786D01*
X3282643Y-14519357D01*
X3282643Y-14547929D01*
X3268357Y-14590786D01*
X3096928Y-14762214D01*
X3282643Y-14762214D01*
X3468357Y-14462214D02*
X3496928Y-14462214D01*
X3525500Y-14476500D01*
X3539786Y-14490786D01*
X3554071Y-14519357D01*
X3568357Y-14576500D01*
X3568357Y-14647929D01*
X3554071Y-14705071D01*
X3539786Y-14733643D01*
X3525500Y-14747929D01*
X3496928Y-14762214D01*
X3468357Y-14762214D01*
X3439786Y-14747929D01*
X3425500Y-14733643D01*
X3411214Y-14705071D01*
X3396928Y-14647929D01*
X3396928Y-14576500D01*
X3411214Y-14519357D01*
X3425500Y-14490786D01*
X3439786Y-14476500D01*
X3468357Y-14462214D01*
X3696928Y-14762214D02*
X3696928Y-14562214D01*
X3696928Y-14590786D02*
X3711214Y-14576500D01*
X3739786Y-14562214D01*
X3782643Y-14562214D01*
X3811214Y-14576500D01*
X3825500Y-14605071D01*
X3825500Y-14762214D01*
X3825500Y-14605071D02*
X3839786Y-14576500D01*
X3868357Y-14562214D01*
X3911214Y-14562214D01*
X3939786Y-14576500D01*
X3954071Y-14605071D01*
X3954071Y-14762214D01*
X4096928Y-14762214D02*
X4096928Y-14562214D01*
X4096928Y-14590786D02*
X4111214Y-14576500D01*
X4139786Y-14562214D01*
X4182643Y-14562214D01*
X4211214Y-14576500D01*
X4225500Y-14605071D01*
X4225500Y-14762214D01*
X4225500Y-14605071D02*
X4239786Y-14576500D01*
X4268357Y-14562214D01*
X4311214Y-14562214D01*
X4339786Y-14576500D01*
X4354071Y-14605071D01*
X4354071Y-14762214D01*
X4939786Y-14447929D02*
X4682643Y-14833643D01*
X5325500Y-14462214D02*
X5354071Y-14462214D01*
X5382643Y-14476500D01*
X5396928Y-14490786D01*
X5411214Y-14519357D01*
X5425500Y-14576500D01*
X5425500Y-14647929D01*
X5411214Y-14705071D01*
X5396928Y-14733643D01*
X5382643Y-14747929D01*
X5354071Y-14762214D01*
X5325500Y-14762214D01*
X5296928Y-14747929D01*
X5282643Y-14733643D01*
X5268357Y-14705071D01*
X5254071Y-14647929D01*
X5254071Y-14576500D01*
X5268357Y-14519357D01*
X5282643Y-14490786D01*
X5296928Y-14476500D01*
X5325500Y-14462214D01*
X5554071Y-14733643D02*
X5568357Y-14747929D01*
X5554071Y-14762214D01*
X5539786Y-14747929D01*
X5554071Y-14733643D01*
X5554071Y-14762214D01*
X5754071Y-14462214D02*
X5782643Y-14462214D01*
X5811214Y-14476500D01*
X5825500Y-14490786D01*
X5839786Y-14519357D01*
X5854071Y-14576500D01*
X5854071Y-14647929D01*
X5839786Y-14705071D01*
X5825500Y-14733643D01*
X5811214Y-14747929D01*
X5782643Y-14762214D01*
X5754071Y-14762214D01*
X5725500Y-14747929D01*
X5711214Y-14733643D01*
X5696928Y-14705071D01*
X5682643Y-14647929D01*
X5682643Y-14576500D01*
X5696928Y-14519357D01*
X5711214Y-14490786D01*
X5725500Y-14476500D01*
X5754071Y-14462214D01*
X6111214Y-14562214D02*
X6111214Y-14762214D01*
X6039786Y-14447929D02*
X5968357Y-14662214D01*
X6154071Y-14662214D01*
X6239786Y-14462214D02*
X6439786Y-14462214D01*
X6311214Y-14762214D01*
X6539786Y-14462214D02*
X6539786Y-14519357D01*
X6654071Y-14462214D02*
X6654071Y-14519357D01*
X7096928Y-14876500D02*
X7082643Y-14862214D01*
X7054071Y-14819357D01*
X7039786Y-14790786D01*
X7025500Y-14747929D01*
X7011214Y-14676500D01*
X7011214Y-14619357D01*
X7025500Y-14547929D01*
X7039786Y-14505071D01*
X7054071Y-14476500D01*
X7082643Y-14433643D01*
X7096928Y-14419357D01*
X7182643Y-14462214D02*
X7368357Y-14462214D01*
X7268357Y-14576500D01*
X7311214Y-14576500D01*
X7339786Y-14590786D01*
X7354071Y-14605071D01*
X7368357Y-14633643D01*
X7368357Y-14705071D01*
X7354071Y-14733643D01*
X7339786Y-14747929D01*
X7311214Y-14762214D01*
X7225500Y-14762214D01*
X7196928Y-14747929D01*
X7182643Y-14733643D01*
X7482643Y-14490786D02*
X7496928Y-14476500D01*
X7525500Y-14462214D01*
X7596928Y-14462214D01*
X7625500Y-14476500D01*
X7639786Y-14490786D01*
X7654071Y-14519357D01*
X7654071Y-14547929D01*
X7639786Y-14590786D01*
X7468357Y-14762214D01*
X7654071Y-14762214D01*
X8011214Y-14762214D02*
X8011214Y-14462214D01*
X8139786Y-14762214D02*
X8139786Y-14605071D01*
X8125500Y-14576500D01*
X8096928Y-14562214D01*
X8054071Y-14562214D01*
X8025500Y-14576500D01*
X8011214Y-14590786D01*
X8325500Y-14762214D02*
X8296928Y-14747929D01*
X8282643Y-14733643D01*
X8268357Y-14705071D01*
X8268357Y-14619357D01*
X8282643Y-14590786D01*
X8296928Y-14576500D01*
X8325500Y-14562214D01*
X8368357Y-14562214D01*
X8396928Y-14576500D01*
X8411214Y-14590786D01*
X8425500Y-14619357D01*
X8425500Y-14705071D01*
X8411214Y-14733643D01*
X8396928Y-14747929D01*
X8368357Y-14762214D01*
X8325500Y-14762214D01*
X8596928Y-14762214D02*
X8568357Y-14747929D01*
X8554071Y-14719357D01*
X8554071Y-14462214D01*
X8825500Y-14747929D02*
X8796928Y-14762214D01*
X8739786Y-14762214D01*
X8711214Y-14747929D01*
X8696928Y-14719357D01*
X8696928Y-14605071D01*
X8711214Y-14576500D01*
X8739786Y-14562214D01*
X8796928Y-14562214D01*
X8825500Y-14576500D01*
X8839786Y-14605071D01*
X8839786Y-14633643D01*
X8696928Y-14662214D01*
X8954071Y-14747929D02*
X8982643Y-14762214D01*
X9039786Y-14762214D01*
X9068357Y-14747929D01*
X9082643Y-14719357D01*
X9082643Y-14705071D01*
X9068357Y-14676500D01*
X9039786Y-14662214D01*
X8996928Y-14662214D01*
X8968357Y-14647929D01*
X8954071Y-14619357D01*
X8954071Y-14605071D01*
X8968357Y-14576500D01*
X8996928Y-14562214D01*
X9039786Y-14562214D01*
X9068357Y-14576500D01*
X9182643Y-14876500D02*
X9196928Y-14862214D01*
X9225500Y-14819357D01*
X9239786Y-14790786D01*
X9254071Y-14747929D01*
X9268357Y-14676500D01*
X9268357Y-14619357D01*
X9254071Y-14547929D01*
X9239786Y-14505071D01*
X9225500Y-14476500D01*
X9196928Y-14433643D01*
X9182643Y-14419357D01*
X2270500Y-14952500D02*
X2410500Y-15092500D01*
X2410500Y-14952500D02*
X2270500Y-15092500D01*
X2340500Y-14952500D02*
X2340500Y-15092500D01*
X2270500Y-15022500D02*
X2410500Y-15022500D01*
X2854071Y-15158214D02*
X2682643Y-15158214D01*
X2768357Y-15158214D02*
X2768357Y-14858214D01*
X2739786Y-14901071D01*
X2711214Y-14929643D01*
X2682643Y-14943929D01*
X2982643Y-15129643D02*
X2996928Y-15143929D01*
X2982643Y-15158214D01*
X2968357Y-15143929D01*
X2982643Y-15129643D01*
X2982643Y-15158214D01*
X3254071Y-14958214D02*
X3254071Y-15158214D01*
X3182643Y-14843929D02*
X3111214Y-15058214D01*
X3296928Y-15058214D01*
X3468357Y-14858214D02*
X3496928Y-14858214D01*
X3525500Y-14872500D01*
X3539786Y-14886786D01*
X3554071Y-14915357D01*
X3568357Y-14972500D01*
X3568357Y-15043929D01*
X3554071Y-15101071D01*
X3539786Y-15129643D01*
X3525500Y-15143929D01*
X3496928Y-15158214D01*
X3468357Y-15158214D01*
X3439786Y-15143929D01*
X3425500Y-15129643D01*
X3411214Y-15101071D01*
X3396928Y-15043929D01*
X3396928Y-14972500D01*
X3411214Y-14915357D01*
X3425500Y-14886786D01*
X3439786Y-14872500D01*
X3468357Y-14858214D01*
X3696928Y-15158214D02*
X3696928Y-14958214D01*
X3696928Y-14986786D02*
X3711214Y-14972500D01*
X3739786Y-14958214D01*
X3782643Y-14958214D01*
X3811214Y-14972500D01*
X3825500Y-15001071D01*
X3825500Y-15158214D01*
X3825500Y-15001071D02*
X3839786Y-14972500D01*
X3868357Y-14958214D01*
X3911214Y-14958214D01*
X3939786Y-14972500D01*
X3954071Y-15001071D01*
X3954071Y-15158214D01*
X4096928Y-15158214D02*
X4096928Y-14958214D01*
X4096928Y-14986786D02*
X4111214Y-14972500D01*
X4139786Y-14958214D01*
X4182643Y-14958214D01*
X4211214Y-14972500D01*
X4225500Y-15001071D01*
X4225500Y-15158214D01*
X4225500Y-15001071D02*
X4239786Y-14972500D01*
X4268357Y-14958214D01*
X4311214Y-14958214D01*
X4339786Y-14972500D01*
X4354071Y-15001071D01*
X4354071Y-15158214D01*
X4939786Y-14843929D02*
X4682643Y-15229643D01*
X5325500Y-14858214D02*
X5354071Y-14858214D01*
X5382643Y-14872500D01*
X5396928Y-14886786D01*
X5411214Y-14915357D01*
X5425500Y-14972500D01*
X5425500Y-15043929D01*
X5411214Y-15101071D01*
X5396928Y-15129643D01*
X5382643Y-15143929D01*
X5354071Y-15158214D01*
X5325500Y-15158214D01*
X5296928Y-15143929D01*
X5282643Y-15129643D01*
X5268357Y-15101071D01*
X5254071Y-15043929D01*
X5254071Y-14972500D01*
X5268357Y-14915357D01*
X5282643Y-14886786D01*
X5296928Y-14872500D01*
X5325500Y-14858214D01*
X5554071Y-15129643D02*
X5568357Y-15143929D01*
X5554071Y-15158214D01*
X5539786Y-15143929D01*
X5554071Y-15129643D01*
X5554071Y-15158214D01*
X5754071Y-14858214D02*
X5782643Y-14858214D01*
X5811214Y-14872500D01*
X5825500Y-14886786D01*
X5839786Y-14915357D01*
X5854071Y-14972500D01*
X5854071Y-15043929D01*
X5839786Y-15101071D01*
X5825500Y-15129643D01*
X5811214Y-15143929D01*
X5782643Y-15158214D01*
X5754071Y-15158214D01*
X5725500Y-15143929D01*
X5711214Y-15129643D01*
X5696928Y-15101071D01*
X5682643Y-15043929D01*
X5682643Y-14972500D01*
X5696928Y-14915357D01*
X5711214Y-14886786D01*
X5725500Y-14872500D01*
X5754071Y-14858214D01*
X6125500Y-14858214D02*
X5982643Y-14858214D01*
X5968357Y-15001071D01*
X5982643Y-14986786D01*
X6011214Y-14972500D01*
X6082643Y-14972500D01*
X6111214Y-14986786D01*
X6125500Y-15001071D01*
X6139786Y-15029643D01*
X6139786Y-15101071D01*
X6125500Y-15129643D01*
X6111214Y-15143929D01*
X6082643Y-15158214D01*
X6011214Y-15158214D01*
X5982643Y-15143929D01*
X5968357Y-15129643D01*
X6411214Y-14858214D02*
X6268357Y-14858214D01*
X6254071Y-15001071D01*
X6268357Y-14986786D01*
X6296928Y-14972500D01*
X6368357Y-14972500D01*
X6396928Y-14986786D01*
X6411214Y-15001071D01*
X6425500Y-15029643D01*
X6425500Y-15101071D01*
X6411214Y-15129643D01*
X6396928Y-15143929D01*
X6368357Y-15158214D01*
X6296928Y-15158214D01*
X6268357Y-15143929D01*
X6254071Y-15129643D01*
X6539786Y-14858214D02*
X6539786Y-14915357D01*
X6654071Y-14858214D02*
X6654071Y-14915357D01*
X7096928Y-15272500D02*
X7082643Y-15258214D01*
X7054071Y-15215357D01*
X7039786Y-15186786D01*
X7025500Y-15143929D01*
X7011214Y-15072500D01*
X7011214Y-15015357D01*
X7025500Y-14943929D01*
X7039786Y-14901071D01*
X7054071Y-14872500D01*
X7082643Y-14829643D01*
X7096928Y-14815357D01*
X7196928Y-14886786D02*
X7211214Y-14872500D01*
X7239786Y-14858214D01*
X7311214Y-14858214D01*
X7339786Y-14872500D01*
X7354071Y-14886786D01*
X7368357Y-14915357D01*
X7368357Y-14943929D01*
X7354071Y-14986786D01*
X7182643Y-15158214D01*
X7368357Y-15158214D01*
X7725500Y-15158214D02*
X7725500Y-14858214D01*
X7854071Y-15158214D02*
X7854071Y-15001071D01*
X7839786Y-14972500D01*
X7811214Y-14958214D01*
X7768357Y-14958214D01*
X7739786Y-14972500D01*
X7725500Y-14986786D01*
X8039786Y-15158214D02*
X8011214Y-15143929D01*
X7996928Y-15129643D01*
X7982643Y-15101071D01*
X7982643Y-15015357D01*
X7996928Y-14986786D01*
X8011214Y-14972500D01*
X8039786Y-14958214D01*
X8082643Y-14958214D01*
X8111214Y-14972500D01*
X8125500Y-14986786D01*
X8139786Y-15015357D01*
X8139786Y-15101071D01*
X8125500Y-15129643D01*
X8111214Y-15143929D01*
X8082643Y-15158214D01*
X8039786Y-15158214D01*
X8311214Y-15158214D02*
X8282643Y-15143929D01*
X8268357Y-15115357D01*
X8268357Y-14858214D01*
X8539786Y-15143929D02*
X8511214Y-15158214D01*
X8454071Y-15158214D01*
X8425500Y-15143929D01*
X8411214Y-15115357D01*
X8411214Y-15001071D01*
X8425500Y-14972500D01*
X8454071Y-14958214D01*
X8511214Y-14958214D01*
X8539786Y-14972500D01*
X8554071Y-15001071D01*
X8554071Y-15029643D01*
X8411214Y-15058214D01*
X8668357Y-15143929D02*
X8696928Y-15158214D01*
X8754071Y-15158214D01*
X8782643Y-15143929D01*
X8796928Y-15115357D01*
X8796928Y-15101071D01*
X8782643Y-15072500D01*
X8754071Y-15058214D01*
X8711214Y-15058214D01*
X8682643Y-15043929D01*
X8668357Y-15015357D01*
X8668357Y-15001071D01*
X8682643Y-14972500D01*
X8711214Y-14958214D01*
X8754071Y-14958214D01*
X8782643Y-14972500D01*
X8896928Y-15272500D02*
X8911214Y-15258214D01*
X8939786Y-15215357D01*
X8954071Y-15186786D01*
X8968357Y-15143929D01*
X8982643Y-15072500D01*
X8982643Y-15015357D01*
X8968357Y-14943929D01*
X8954071Y-14901071D01*
X8939786Y-14872500D01*
X8911214Y-14829643D01*
X8896928Y-14815357D01*
X2090500Y-15258500D02*
X2410500Y-15578500D01*
X2410500Y-15258500D02*
X2090500Y-15578500D01*
X2363638Y-15531638D02*
X2363638Y-15305362D01*
X2137362Y-15305362D01*
X2137362Y-15531638D01*
X2363638Y-15531638D01*
X2668357Y-15254214D02*
X2854071Y-15254214D01*
X2754071Y-15368500D01*
X2796928Y-15368500D01*
X2825500Y-15382786D01*
X2839786Y-15397071D01*
X2854071Y-15425643D01*
X2854071Y-15497071D01*
X2839786Y-15525643D01*
X2825500Y-15539929D01*
X2796928Y-15554214D01*
X2711214Y-15554214D01*
X2682643Y-15539929D01*
X2668357Y-15525643D01*
X2982643Y-15525643D02*
X2996928Y-15539929D01*
X2982643Y-15554214D01*
X2968357Y-15539929D01*
X2982643Y-15525643D01*
X2982643Y-15554214D01*
X3111214Y-15282786D02*
X3125500Y-15268500D01*
X3154071Y-15254214D01*
X3225500Y-15254214D01*
X3254071Y-15268500D01*
X3268357Y-15282786D01*
X3282643Y-15311357D01*
X3282643Y-15339929D01*
X3268357Y-15382786D01*
X3096928Y-15554214D01*
X3282643Y-15554214D01*
X3468357Y-15254214D02*
X3496928Y-15254214D01*
X3525500Y-15268500D01*
X3539786Y-15282786D01*
X3554071Y-15311357D01*
X3568357Y-15368500D01*
X3568357Y-15439929D01*
X3554071Y-15497071D01*
X3539786Y-15525643D01*
X3525500Y-15539929D01*
X3496928Y-15554214D01*
X3468357Y-15554214D01*
X3439786Y-15539929D01*
X3425500Y-15525643D01*
X3411214Y-15497071D01*
X3396928Y-15439929D01*
X3396928Y-15368500D01*
X3411214Y-15311357D01*
X3425500Y-15282786D01*
X3439786Y-15268500D01*
X3468357Y-15254214D01*
X3696928Y-15554214D02*
X3696928Y-15354214D01*
X3696928Y-15382786D02*
X3711214Y-15368500D01*
X3739786Y-15354214D01*
X3782643Y-15354214D01*
X3811214Y-15368500D01*
X3825500Y-15397071D01*
X3825500Y-15554214D01*
X3825500Y-15397071D02*
X3839786Y-15368500D01*
X3868357Y-15354214D01*
X3911214Y-15354214D01*
X3939786Y-15368500D01*
X3954071Y-15397071D01*
X3954071Y-15554214D01*
X4096928Y-15554214D02*
X4096928Y-15354214D01*
X4096928Y-15382786D02*
X4111214Y-15368500D01*
X4139786Y-15354214D01*
X4182643Y-15354214D01*
X4211214Y-15368500D01*
X4225500Y-15397071D01*
X4225500Y-15554214D01*
X4225500Y-15397071D02*
X4239786Y-15368500D01*
X4268357Y-15354214D01*
X4311214Y-15354214D01*
X4339786Y-15368500D01*
X4354071Y-15397071D01*
X4354071Y-15554214D01*
X4939786Y-15239929D02*
X4682643Y-15625643D01*
X5325500Y-15254214D02*
X5354071Y-15254214D01*
X5382643Y-15268500D01*
X5396928Y-15282786D01*
X5411214Y-15311357D01*
X5425500Y-15368500D01*
X5425500Y-15439929D01*
X5411214Y-15497071D01*
X5396928Y-15525643D01*
X5382643Y-15539929D01*
X5354071Y-15554214D01*
X5325500Y-15554214D01*
X5296928Y-15539929D01*
X5282643Y-15525643D01*
X5268357Y-15497071D01*
X5254071Y-15439929D01*
X5254071Y-15368500D01*
X5268357Y-15311357D01*
X5282643Y-15282786D01*
X5296928Y-15268500D01*
X5325500Y-15254214D01*
X5554071Y-15525643D02*
X5568357Y-15539929D01*
X5554071Y-15554214D01*
X5539786Y-15539929D01*
X5554071Y-15525643D01*
X5554071Y-15554214D01*
X5854071Y-15554214D02*
X5682643Y-15554214D01*
X5768357Y-15554214D02*
X5768357Y-15254214D01*
X5739786Y-15297071D01*
X5711214Y-15325643D01*
X5682643Y-15339929D01*
X5968357Y-15282786D02*
X5982643Y-15268500D01*
X6011214Y-15254214D01*
X6082643Y-15254214D01*
X6111214Y-15268500D01*
X6125500Y-15282786D01*
X6139786Y-15311357D01*
X6139786Y-15339929D01*
X6125500Y-15382786D01*
X5954071Y-15554214D01*
X6139786Y-15554214D01*
X6396928Y-15254214D02*
X6339786Y-15254214D01*
X6311214Y-15268500D01*
X6296928Y-15282786D01*
X6268357Y-15325643D01*
X6254071Y-15382786D01*
X6254071Y-15497071D01*
X6268357Y-15525643D01*
X6282643Y-15539929D01*
X6311214Y-15554214D01*
X6368357Y-15554214D01*
X6396928Y-15539929D01*
X6411214Y-15525643D01*
X6425500Y-15497071D01*
X6425500Y-15425643D01*
X6411214Y-15397071D01*
X6396928Y-15382786D01*
X6368357Y-15368500D01*
X6311214Y-15368500D01*
X6282643Y-15382786D01*
X6268357Y-15397071D01*
X6254071Y-15425643D01*
X6539786Y-15254214D02*
X6539786Y-15311357D01*
X6654071Y-15254214D02*
X6654071Y-15311357D01*
X7096928Y-15668500D02*
X7082643Y-15654214D01*
X7054071Y-15611357D01*
X7039786Y-15582786D01*
X7025500Y-15539929D01*
X7011214Y-15468500D01*
X7011214Y-15411357D01*
X7025500Y-15339929D01*
X7039786Y-15297071D01*
X7054071Y-15268500D01*
X7082643Y-15225643D01*
X7096928Y-15211357D01*
X7339786Y-15354214D02*
X7339786Y-15554214D01*
X7268357Y-15239929D02*
X7196928Y-15454214D01*
X7382643Y-15454214D01*
X7725500Y-15554214D02*
X7725500Y-15254214D01*
X7854071Y-15554214D02*
X7854071Y-15397071D01*
X7839786Y-15368500D01*
X7811214Y-15354214D01*
X7768357Y-15354214D01*
X7739786Y-15368500D01*
X7725500Y-15382786D01*
X8039786Y-15554214D02*
X8011214Y-15539929D01*
X7996928Y-15525643D01*
X7982643Y-15497071D01*
X7982643Y-15411357D01*
X7996928Y-15382786D01*
X8011214Y-15368500D01*
X8039786Y-15354214D01*
X8082643Y-15354214D01*
X8111214Y-15368500D01*
X8125500Y-15382786D01*
X8139786Y-15411357D01*
X8139786Y-15497071D01*
X8125500Y-15525643D01*
X8111214Y-15539929D01*
X8082643Y-15554214D01*
X8039786Y-15554214D01*
X8311214Y-15554214D02*
X8282643Y-15539929D01*
X8268357Y-15511357D01*
X8268357Y-15254214D01*
X8539786Y-15539929D02*
X8511214Y-15554214D01*
X8454071Y-15554214D01*
X8425500Y-15539929D01*
X8411214Y-15511357D01*
X8411214Y-15397071D01*
X8425500Y-15368500D01*
X8454071Y-15354214D01*
X8511214Y-15354214D01*
X8539786Y-15368500D01*
X8554071Y-15397071D01*
X8554071Y-15425643D01*
X8411214Y-15454214D01*
X8668357Y-15539929D02*
X8696928Y-15554214D01*
X8754071Y-15554214D01*
X8782643Y-15539929D01*
X8796928Y-15511357D01*
X8796928Y-15497071D01*
X8782643Y-15468500D01*
X8754071Y-15454214D01*
X8711214Y-15454214D01*
X8682643Y-15439929D01*
X8668357Y-15411357D01*
X8668357Y-15397071D01*
X8682643Y-15368500D01*
X8711214Y-15354214D01*
X8754071Y-15354214D01*
X8782643Y-15368500D01*
X8896928Y-15668500D02*
X8911214Y-15654214D01*
X8939786Y-15611357D01*
X8954071Y-15582786D01*
X8968357Y-15539929D01*
X8982643Y-15468500D01*
X8982643Y-15411357D01*
X8968357Y-15339929D01*
X8954071Y-15297071D01*
X8939786Y-15268500D01*
X8911214Y-15225643D01*
X8896928Y-15211357D01*
M02*
