%TF.GenerationSoftware,KiCad,Pcbnew,(5.1.9)-1*%
%TF.CreationDate,2021-03-17T19:06:28+01:00*%
%TF.ProjectId,Nvum_CNC_expander,4e76756d-5f43-44e4-935f-657870616e64,1*%
%TF.SameCoordinates,Original*%
%TF.FileFunction,Paste,Top*%
%TF.FilePolarity,Positive*%
%FSLAX46Y46*%
G04 Gerber Fmt 4.6, Leading zero omitted, Abs format (unit mm)*
G04 Created by KiCad (PCBNEW (5.1.9)-1) date 2021-03-17 19:06:28*
%MOMM*%
%LPD*%
G01*
G04 APERTURE LIST*
G04 APERTURE END LIST*
%TO.C,R30*%
G36*
G01*
X75749999Y-64170000D02*
X76650001Y-64170000D01*
G75*
G02*
X76900000Y-64419999I0J-249999D01*
G01*
X76900000Y-65120001D01*
G75*
G02*
X76650001Y-65370000I-249999J0D01*
G01*
X75749999Y-65370000D01*
G75*
G02*
X75500000Y-65120001I0J249999D01*
G01*
X75500000Y-64419999D01*
G75*
G02*
X75749999Y-64170000I249999J0D01*
G01*
G37*
G36*
G01*
X75749999Y-62170000D02*
X76650001Y-62170000D01*
G75*
G02*
X76900000Y-62419999I0J-249999D01*
G01*
X76900000Y-63120001D01*
G75*
G02*
X76650001Y-63370000I-249999J0D01*
G01*
X75749999Y-63370000D01*
G75*
G02*
X75500000Y-63120001I0J249999D01*
G01*
X75500000Y-62419999D01*
G75*
G02*
X75749999Y-62170000I249999J0D01*
G01*
G37*
%TD*%
%TO.C,R29*%
G36*
G01*
X79559999Y-64170000D02*
X80460001Y-64170000D01*
G75*
G02*
X80710000Y-64419999I0J-249999D01*
G01*
X80710000Y-65120001D01*
G75*
G02*
X80460001Y-65370000I-249999J0D01*
G01*
X79559999Y-65370000D01*
G75*
G02*
X79310000Y-65120001I0J249999D01*
G01*
X79310000Y-64419999D01*
G75*
G02*
X79559999Y-64170000I249999J0D01*
G01*
G37*
G36*
G01*
X79559999Y-62170000D02*
X80460001Y-62170000D01*
G75*
G02*
X80710000Y-62419999I0J-249999D01*
G01*
X80710000Y-63120001D01*
G75*
G02*
X80460001Y-63370000I-249999J0D01*
G01*
X79559999Y-63370000D01*
G75*
G02*
X79310000Y-63120001I0J249999D01*
G01*
X79310000Y-62419999D01*
G75*
G02*
X79559999Y-62170000I249999J0D01*
G01*
G37*
%TD*%
%TO.C,R28*%
G36*
G01*
X83369999Y-64170000D02*
X84270001Y-64170000D01*
G75*
G02*
X84520000Y-64419999I0J-249999D01*
G01*
X84520000Y-65120001D01*
G75*
G02*
X84270001Y-65370000I-249999J0D01*
G01*
X83369999Y-65370000D01*
G75*
G02*
X83120000Y-65120001I0J249999D01*
G01*
X83120000Y-64419999D01*
G75*
G02*
X83369999Y-64170000I249999J0D01*
G01*
G37*
G36*
G01*
X83369999Y-62170000D02*
X84270001Y-62170000D01*
G75*
G02*
X84520000Y-62419999I0J-249999D01*
G01*
X84520000Y-63120001D01*
G75*
G02*
X84270001Y-63370000I-249999J0D01*
G01*
X83369999Y-63370000D01*
G75*
G02*
X83120000Y-63120001I0J249999D01*
G01*
X83120000Y-62419999D01*
G75*
G02*
X83369999Y-62170000I249999J0D01*
G01*
G37*
%TD*%
%TO.C,R27*%
G36*
G01*
X87179999Y-64170000D02*
X88080001Y-64170000D01*
G75*
G02*
X88330000Y-64419999I0J-249999D01*
G01*
X88330000Y-65120001D01*
G75*
G02*
X88080001Y-65370000I-249999J0D01*
G01*
X87179999Y-65370000D01*
G75*
G02*
X86930000Y-65120001I0J249999D01*
G01*
X86930000Y-64419999D01*
G75*
G02*
X87179999Y-64170000I249999J0D01*
G01*
G37*
G36*
G01*
X87179999Y-62170000D02*
X88080001Y-62170000D01*
G75*
G02*
X88330000Y-62419999I0J-249999D01*
G01*
X88330000Y-63120001D01*
G75*
G02*
X88080001Y-63370000I-249999J0D01*
G01*
X87179999Y-63370000D01*
G75*
G02*
X86930000Y-63120001I0J249999D01*
G01*
X86930000Y-62419999D01*
G75*
G02*
X87179999Y-62170000I249999J0D01*
G01*
G37*
%TD*%
%TO.C,R26*%
G36*
G01*
X90989999Y-64170000D02*
X91890001Y-64170000D01*
G75*
G02*
X92140000Y-64419999I0J-249999D01*
G01*
X92140000Y-65120001D01*
G75*
G02*
X91890001Y-65370000I-249999J0D01*
G01*
X90989999Y-65370000D01*
G75*
G02*
X90740000Y-65120001I0J249999D01*
G01*
X90740000Y-64419999D01*
G75*
G02*
X90989999Y-64170000I249999J0D01*
G01*
G37*
G36*
G01*
X90989999Y-62170000D02*
X91890001Y-62170000D01*
G75*
G02*
X92140000Y-62419999I0J-249999D01*
G01*
X92140000Y-63120001D01*
G75*
G02*
X91890001Y-63370000I-249999J0D01*
G01*
X90989999Y-63370000D01*
G75*
G02*
X90740000Y-63120001I0J249999D01*
G01*
X90740000Y-62419999D01*
G75*
G02*
X90989999Y-62170000I249999J0D01*
G01*
G37*
%TD*%
%TO.C,R25*%
G36*
G01*
X94799999Y-64170000D02*
X95700001Y-64170000D01*
G75*
G02*
X95950000Y-64419999I0J-249999D01*
G01*
X95950000Y-65120001D01*
G75*
G02*
X95700001Y-65370000I-249999J0D01*
G01*
X94799999Y-65370000D01*
G75*
G02*
X94550000Y-65120001I0J249999D01*
G01*
X94550000Y-64419999D01*
G75*
G02*
X94799999Y-64170000I249999J0D01*
G01*
G37*
G36*
G01*
X94799999Y-62170000D02*
X95700001Y-62170000D01*
G75*
G02*
X95950000Y-62419999I0J-249999D01*
G01*
X95950000Y-63120001D01*
G75*
G02*
X95700001Y-63370000I-249999J0D01*
G01*
X94799999Y-63370000D01*
G75*
G02*
X94550000Y-63120001I0J249999D01*
G01*
X94550000Y-62419999D01*
G75*
G02*
X94799999Y-62170000I249999J0D01*
G01*
G37*
%TD*%
%TO.C,R24*%
G36*
G01*
X98609999Y-64170000D02*
X99510001Y-64170000D01*
G75*
G02*
X99760000Y-64419999I0J-249999D01*
G01*
X99760000Y-65120001D01*
G75*
G02*
X99510001Y-65370000I-249999J0D01*
G01*
X98609999Y-65370000D01*
G75*
G02*
X98360000Y-65120001I0J249999D01*
G01*
X98360000Y-64419999D01*
G75*
G02*
X98609999Y-64170000I249999J0D01*
G01*
G37*
G36*
G01*
X98609999Y-62170000D02*
X99510001Y-62170000D01*
G75*
G02*
X99760000Y-62419999I0J-249999D01*
G01*
X99760000Y-63120001D01*
G75*
G02*
X99510001Y-63370000I-249999J0D01*
G01*
X98609999Y-63370000D01*
G75*
G02*
X98360000Y-63120001I0J249999D01*
G01*
X98360000Y-62419999D01*
G75*
G02*
X98609999Y-62170000I249999J0D01*
G01*
G37*
%TD*%
%TO.C,R23*%
G36*
G01*
X102419999Y-64170000D02*
X103320001Y-64170000D01*
G75*
G02*
X103570000Y-64419999I0J-249999D01*
G01*
X103570000Y-65120001D01*
G75*
G02*
X103320001Y-65370000I-249999J0D01*
G01*
X102419999Y-65370000D01*
G75*
G02*
X102170000Y-65120001I0J249999D01*
G01*
X102170000Y-64419999D01*
G75*
G02*
X102419999Y-64170000I249999J0D01*
G01*
G37*
G36*
G01*
X102419999Y-62170000D02*
X103320001Y-62170000D01*
G75*
G02*
X103570000Y-62419999I0J-249999D01*
G01*
X103570000Y-63120001D01*
G75*
G02*
X103320001Y-63370000I-249999J0D01*
G01*
X102419999Y-63370000D01*
G75*
G02*
X102170000Y-63120001I0J249999D01*
G01*
X102170000Y-62419999D01*
G75*
G02*
X102419999Y-62170000I249999J0D01*
G01*
G37*
%TD*%
%TO.C,R22*%
G36*
G01*
X106229999Y-64170000D02*
X107130001Y-64170000D01*
G75*
G02*
X107380000Y-64419999I0J-249999D01*
G01*
X107380000Y-65120001D01*
G75*
G02*
X107130001Y-65370000I-249999J0D01*
G01*
X106229999Y-65370000D01*
G75*
G02*
X105980000Y-65120001I0J249999D01*
G01*
X105980000Y-64419999D01*
G75*
G02*
X106229999Y-64170000I249999J0D01*
G01*
G37*
G36*
G01*
X106229999Y-62170000D02*
X107130001Y-62170000D01*
G75*
G02*
X107380000Y-62419999I0J-249999D01*
G01*
X107380000Y-63120001D01*
G75*
G02*
X107130001Y-63370000I-249999J0D01*
G01*
X106229999Y-63370000D01*
G75*
G02*
X105980000Y-63120001I0J249999D01*
G01*
X105980000Y-62419999D01*
G75*
G02*
X106229999Y-62170000I249999J0D01*
G01*
G37*
%TD*%
%TO.C,R21*%
G36*
G01*
X110039999Y-64170000D02*
X110940001Y-64170000D01*
G75*
G02*
X111190000Y-64419999I0J-249999D01*
G01*
X111190000Y-65120001D01*
G75*
G02*
X110940001Y-65370000I-249999J0D01*
G01*
X110039999Y-65370000D01*
G75*
G02*
X109790000Y-65120001I0J249999D01*
G01*
X109790000Y-64419999D01*
G75*
G02*
X110039999Y-64170000I249999J0D01*
G01*
G37*
G36*
G01*
X110039999Y-62170000D02*
X110940001Y-62170000D01*
G75*
G02*
X111190000Y-62419999I0J-249999D01*
G01*
X111190000Y-63120001D01*
G75*
G02*
X110940001Y-63370000I-249999J0D01*
G01*
X110039999Y-63370000D01*
G75*
G02*
X109790000Y-63120001I0J249999D01*
G01*
X109790000Y-62419999D01*
G75*
G02*
X110039999Y-62170000I249999J0D01*
G01*
G37*
%TD*%
M02*
