%TF.GenerationSoftware,KiCad,Pcbnew,(5.1.9)-1*%
%TF.CreationDate,2021-03-17T19:06:28+01:00*%
%TF.ProjectId,Nvum_CNC_expander,4e76756d-5f43-44e4-935f-657870616e64,1*%
%TF.SameCoordinates,Original*%
%TF.FileFunction,Legend,Bot*%
%TF.FilePolarity,Positive*%
%FSLAX46Y46*%
G04 Gerber Fmt 4.6, Leading zero omitted, Abs format (unit mm)*
G04 Created by KiCad (PCBNEW (5.1.9)-1) date 2021-03-17 19:06:28*
%MOMM*%
%LPD*%
G01*
G04 APERTURE LIST*
%ADD10C,0.120000*%
%ADD11C,0.150000*%
G04 APERTURE END LIST*
D10*
%TO.C,C1*%
X65263752Y-62965000D02*
X64741248Y-62965000D01*
X65263752Y-61495000D02*
X64741248Y-61495000D01*
%TO.C,Q1*%
X122484000Y-83326000D02*
X121554000Y-83326000D01*
X119324000Y-83326000D02*
X120254000Y-83326000D01*
X119324000Y-83326000D02*
X119324000Y-81166000D01*
X122484000Y-83326000D02*
X122484000Y-81866000D01*
%TO.C,Q2*%
X112070000Y-83580000D02*
X112070000Y-82120000D01*
X108910000Y-83580000D02*
X108910000Y-81420000D01*
X108910000Y-83580000D02*
X109840000Y-83580000D01*
X112070000Y-83580000D02*
X111140000Y-83580000D01*
%TO.C,Q3*%
X101910000Y-83580000D02*
X100980000Y-83580000D01*
X98750000Y-83580000D02*
X99680000Y-83580000D01*
X98750000Y-83580000D02*
X98750000Y-81420000D01*
X101910000Y-83580000D02*
X101910000Y-82120000D01*
%TO.C,Q4*%
X92070000Y-83580000D02*
X92070000Y-82120000D01*
X88910000Y-83580000D02*
X88910000Y-81420000D01*
X88910000Y-83580000D02*
X89840000Y-83580000D01*
X92070000Y-83580000D02*
X91140000Y-83580000D01*
%TO.C,Q5*%
X81590000Y-83580000D02*
X81590000Y-82120000D01*
X78430000Y-83580000D02*
X78430000Y-81420000D01*
X78430000Y-83580000D02*
X79360000Y-83580000D01*
X81590000Y-83580000D02*
X80660000Y-83580000D01*
%TO.C,Q6*%
X71750000Y-83580000D02*
X70820000Y-83580000D01*
X68590000Y-83580000D02*
X69520000Y-83580000D01*
X68590000Y-83580000D02*
X68590000Y-81420000D01*
X71750000Y-83580000D02*
X71750000Y-82120000D01*
%TO.C,Q7*%
X61270000Y-83580000D02*
X60340000Y-83580000D01*
X58110000Y-83580000D02*
X59040000Y-83580000D01*
X58110000Y-83580000D02*
X58110000Y-81420000D01*
X61270000Y-83580000D02*
X61270000Y-82120000D01*
%TO.C,Q8*%
X51110000Y-83580000D02*
X50180000Y-83580000D01*
X47950000Y-83580000D02*
X48880000Y-83580000D01*
X47950000Y-83580000D02*
X47950000Y-81420000D01*
X51110000Y-83580000D02*
X51110000Y-82120000D01*
%TO.C,Q9*%
X40950000Y-83580000D02*
X40950000Y-82120000D01*
X37790000Y-83580000D02*
X37790000Y-81420000D01*
X37790000Y-83580000D02*
X38720000Y-83580000D01*
X40950000Y-83580000D02*
X40020000Y-83580000D01*
%TO.C,Q10*%
X30790000Y-83580000D02*
X30790000Y-82120000D01*
X27630000Y-83580000D02*
X27630000Y-81420000D01*
X27630000Y-83580000D02*
X28560000Y-83580000D01*
X30790000Y-83580000D02*
X29860000Y-83580000D01*
%TO.C,R6*%
X125449000Y-90688936D02*
X125449000Y-91143064D01*
X123979000Y-90688936D02*
X123979000Y-91143064D01*
%TO.C,R7*%
X115035000Y-91482936D02*
X115035000Y-91937064D01*
X113565000Y-91482936D02*
X113565000Y-91937064D01*
%TO.C,R8*%
X103405000Y-91482936D02*
X103405000Y-91937064D01*
X104875000Y-91482936D02*
X104875000Y-91937064D01*
%TO.C,R9*%
X94715000Y-91482936D02*
X94715000Y-91937064D01*
X93245000Y-91482936D02*
X93245000Y-91937064D01*
%TO.C,R10*%
X84555000Y-91482936D02*
X84555000Y-91937064D01*
X83085000Y-91482936D02*
X83085000Y-91937064D01*
%TO.C,R16*%
X72925000Y-91482936D02*
X72925000Y-91937064D01*
X74395000Y-91482936D02*
X74395000Y-91937064D01*
%TO.C,R17*%
X64235000Y-91482936D02*
X64235000Y-91937064D01*
X62765000Y-91482936D02*
X62765000Y-91937064D01*
%TO.C,R18*%
X52605000Y-91482936D02*
X52605000Y-91937064D01*
X54075000Y-91482936D02*
X54075000Y-91937064D01*
%TO.C,R19*%
X42445000Y-91482936D02*
X42445000Y-91937064D01*
X43915000Y-91482936D02*
X43915000Y-91937064D01*
%TO.C,R20*%
X32285000Y-91482936D02*
X32285000Y-91937064D01*
X33755000Y-91482936D02*
X33755000Y-91937064D01*
%TO.C,R31*%
X111225000Y-63542936D02*
X111225000Y-63997064D01*
X109755000Y-63542936D02*
X109755000Y-63997064D01*
%TO.C,R32*%
X105945000Y-63542936D02*
X105945000Y-63997064D01*
X107415000Y-63542936D02*
X107415000Y-63997064D01*
%TO.C,R33*%
X103605000Y-63542936D02*
X103605000Y-63997064D01*
X102135000Y-63542936D02*
X102135000Y-63997064D01*
%TO.C,R34*%
X98325000Y-63542936D02*
X98325000Y-63997064D01*
X99795000Y-63542936D02*
X99795000Y-63997064D01*
%TO.C,R35*%
X95985000Y-63542936D02*
X95985000Y-63997064D01*
X94515000Y-63542936D02*
X94515000Y-63997064D01*
%TO.C,R36*%
X92175000Y-63542936D02*
X92175000Y-63997064D01*
X90705000Y-63542936D02*
X90705000Y-63997064D01*
%TO.C,R37*%
X86895000Y-63542936D02*
X86895000Y-63997064D01*
X88365000Y-63542936D02*
X88365000Y-63997064D01*
%TO.C,R38*%
X84555000Y-63587937D02*
X84555000Y-64042065D01*
X83085000Y-63587937D02*
X83085000Y-64042065D01*
%TO.C,R39*%
X79275000Y-63542936D02*
X79275000Y-63997064D01*
X80745000Y-63542936D02*
X80745000Y-63997064D01*
%TO.C,R40*%
X76935000Y-63542936D02*
X76935000Y-63997064D01*
X75465000Y-63542936D02*
X75465000Y-63997064D01*
%TO.C,R41*%
X59647064Y-61495000D02*
X59192936Y-61495000D01*
X59647064Y-62965000D02*
X59192936Y-62965000D01*
%TO.C,C1*%
D11*
X65169166Y-60907142D02*
X65216785Y-60954761D01*
X65359642Y-61002380D01*
X65454880Y-61002380D01*
X65597738Y-60954761D01*
X65692976Y-60859523D01*
X65740595Y-60764285D01*
X65788214Y-60573809D01*
X65788214Y-60430952D01*
X65740595Y-60240476D01*
X65692976Y-60145238D01*
X65597738Y-60050000D01*
X65454880Y-60002380D01*
X65359642Y-60002380D01*
X65216785Y-60050000D01*
X65169166Y-60097619D01*
X64216785Y-61002380D02*
X64788214Y-61002380D01*
X64502500Y-61002380D02*
X64502500Y-60002380D01*
X64597738Y-60145238D01*
X64692976Y-60240476D01*
X64788214Y-60288095D01*
%TO.C,Q1*%
X118951619Y-82470761D02*
X118904000Y-82375523D01*
X118808761Y-82280285D01*
X118665904Y-82137428D01*
X118618285Y-82042190D01*
X118618285Y-81946952D01*
X118856380Y-81994571D02*
X118808761Y-81899333D01*
X118713523Y-81804095D01*
X118523047Y-81756476D01*
X118189714Y-81756476D01*
X117999238Y-81804095D01*
X117904000Y-81899333D01*
X117856380Y-81994571D01*
X117856380Y-82185047D01*
X117904000Y-82280285D01*
X117999238Y-82375523D01*
X118189714Y-82423142D01*
X118523047Y-82423142D01*
X118713523Y-82375523D01*
X118808761Y-82280285D01*
X118856380Y-82185047D01*
X118856380Y-81994571D01*
X118856380Y-83375523D02*
X118856380Y-82804095D01*
X118856380Y-83089809D02*
X117856380Y-83089809D01*
X117999238Y-82994571D01*
X118094476Y-82899333D01*
X118142095Y-82804095D01*
%TO.C,Q2*%
X108537619Y-82724761D02*
X108490000Y-82629523D01*
X108394761Y-82534285D01*
X108251904Y-82391428D01*
X108204285Y-82296190D01*
X108204285Y-82200952D01*
X108442380Y-82248571D02*
X108394761Y-82153333D01*
X108299523Y-82058095D01*
X108109047Y-82010476D01*
X107775714Y-82010476D01*
X107585238Y-82058095D01*
X107490000Y-82153333D01*
X107442380Y-82248571D01*
X107442380Y-82439047D01*
X107490000Y-82534285D01*
X107585238Y-82629523D01*
X107775714Y-82677142D01*
X108109047Y-82677142D01*
X108299523Y-82629523D01*
X108394761Y-82534285D01*
X108442380Y-82439047D01*
X108442380Y-82248571D01*
X107537619Y-83058095D02*
X107490000Y-83105714D01*
X107442380Y-83200952D01*
X107442380Y-83439047D01*
X107490000Y-83534285D01*
X107537619Y-83581904D01*
X107632857Y-83629523D01*
X107728095Y-83629523D01*
X107870952Y-83581904D01*
X108442380Y-83010476D01*
X108442380Y-83629523D01*
%TO.C,Q3*%
X98377619Y-82724761D02*
X98330000Y-82629523D01*
X98234761Y-82534285D01*
X98091904Y-82391428D01*
X98044285Y-82296190D01*
X98044285Y-82200952D01*
X98282380Y-82248571D02*
X98234761Y-82153333D01*
X98139523Y-82058095D01*
X97949047Y-82010476D01*
X97615714Y-82010476D01*
X97425238Y-82058095D01*
X97330000Y-82153333D01*
X97282380Y-82248571D01*
X97282380Y-82439047D01*
X97330000Y-82534285D01*
X97425238Y-82629523D01*
X97615714Y-82677142D01*
X97949047Y-82677142D01*
X98139523Y-82629523D01*
X98234761Y-82534285D01*
X98282380Y-82439047D01*
X98282380Y-82248571D01*
X97282380Y-83010476D02*
X97282380Y-83629523D01*
X97663333Y-83296190D01*
X97663333Y-83439047D01*
X97710952Y-83534285D01*
X97758571Y-83581904D01*
X97853809Y-83629523D01*
X98091904Y-83629523D01*
X98187142Y-83581904D01*
X98234761Y-83534285D01*
X98282380Y-83439047D01*
X98282380Y-83153333D01*
X98234761Y-83058095D01*
X98187142Y-83010476D01*
%TO.C,Q4*%
X88537619Y-82724761D02*
X88490000Y-82629523D01*
X88394761Y-82534285D01*
X88251904Y-82391428D01*
X88204285Y-82296190D01*
X88204285Y-82200952D01*
X88442380Y-82248571D02*
X88394761Y-82153333D01*
X88299523Y-82058095D01*
X88109047Y-82010476D01*
X87775714Y-82010476D01*
X87585238Y-82058095D01*
X87490000Y-82153333D01*
X87442380Y-82248571D01*
X87442380Y-82439047D01*
X87490000Y-82534285D01*
X87585238Y-82629523D01*
X87775714Y-82677142D01*
X88109047Y-82677142D01*
X88299523Y-82629523D01*
X88394761Y-82534285D01*
X88442380Y-82439047D01*
X88442380Y-82248571D01*
X87775714Y-83534285D02*
X88442380Y-83534285D01*
X87394761Y-83296190D02*
X88109047Y-83058095D01*
X88109047Y-83677142D01*
%TO.C,Q5*%
X78057619Y-82724761D02*
X78010000Y-82629523D01*
X77914761Y-82534285D01*
X77771904Y-82391428D01*
X77724285Y-82296190D01*
X77724285Y-82200952D01*
X77962380Y-82248571D02*
X77914761Y-82153333D01*
X77819523Y-82058095D01*
X77629047Y-82010476D01*
X77295714Y-82010476D01*
X77105238Y-82058095D01*
X77010000Y-82153333D01*
X76962380Y-82248571D01*
X76962380Y-82439047D01*
X77010000Y-82534285D01*
X77105238Y-82629523D01*
X77295714Y-82677142D01*
X77629047Y-82677142D01*
X77819523Y-82629523D01*
X77914761Y-82534285D01*
X77962380Y-82439047D01*
X77962380Y-82248571D01*
X76962380Y-83581904D02*
X76962380Y-83105714D01*
X77438571Y-83058095D01*
X77390952Y-83105714D01*
X77343333Y-83200952D01*
X77343333Y-83439047D01*
X77390952Y-83534285D01*
X77438571Y-83581904D01*
X77533809Y-83629523D01*
X77771904Y-83629523D01*
X77867142Y-83581904D01*
X77914761Y-83534285D01*
X77962380Y-83439047D01*
X77962380Y-83200952D01*
X77914761Y-83105714D01*
X77867142Y-83058095D01*
%TO.C,Q6*%
X68217619Y-82724761D02*
X68170000Y-82629523D01*
X68074761Y-82534285D01*
X67931904Y-82391428D01*
X67884285Y-82296190D01*
X67884285Y-82200952D01*
X68122380Y-82248571D02*
X68074761Y-82153333D01*
X67979523Y-82058095D01*
X67789047Y-82010476D01*
X67455714Y-82010476D01*
X67265238Y-82058095D01*
X67170000Y-82153333D01*
X67122380Y-82248571D01*
X67122380Y-82439047D01*
X67170000Y-82534285D01*
X67265238Y-82629523D01*
X67455714Y-82677142D01*
X67789047Y-82677142D01*
X67979523Y-82629523D01*
X68074761Y-82534285D01*
X68122380Y-82439047D01*
X68122380Y-82248571D01*
X67122380Y-83534285D02*
X67122380Y-83343809D01*
X67170000Y-83248571D01*
X67217619Y-83200952D01*
X67360476Y-83105714D01*
X67550952Y-83058095D01*
X67931904Y-83058095D01*
X68027142Y-83105714D01*
X68074761Y-83153333D01*
X68122380Y-83248571D01*
X68122380Y-83439047D01*
X68074761Y-83534285D01*
X68027142Y-83581904D01*
X67931904Y-83629523D01*
X67693809Y-83629523D01*
X67598571Y-83581904D01*
X67550952Y-83534285D01*
X67503333Y-83439047D01*
X67503333Y-83248571D01*
X67550952Y-83153333D01*
X67598571Y-83105714D01*
X67693809Y-83058095D01*
%TO.C,Q7*%
X57737619Y-82724761D02*
X57690000Y-82629523D01*
X57594761Y-82534285D01*
X57451904Y-82391428D01*
X57404285Y-82296190D01*
X57404285Y-82200952D01*
X57642380Y-82248571D02*
X57594761Y-82153333D01*
X57499523Y-82058095D01*
X57309047Y-82010476D01*
X56975714Y-82010476D01*
X56785238Y-82058095D01*
X56690000Y-82153333D01*
X56642380Y-82248571D01*
X56642380Y-82439047D01*
X56690000Y-82534285D01*
X56785238Y-82629523D01*
X56975714Y-82677142D01*
X57309047Y-82677142D01*
X57499523Y-82629523D01*
X57594761Y-82534285D01*
X57642380Y-82439047D01*
X57642380Y-82248571D01*
X56642380Y-83010476D02*
X56642380Y-83677142D01*
X57642380Y-83248571D01*
%TO.C,Q8*%
X47577619Y-82724761D02*
X47530000Y-82629523D01*
X47434761Y-82534285D01*
X47291904Y-82391428D01*
X47244285Y-82296190D01*
X47244285Y-82200952D01*
X47482380Y-82248571D02*
X47434761Y-82153333D01*
X47339523Y-82058095D01*
X47149047Y-82010476D01*
X46815714Y-82010476D01*
X46625238Y-82058095D01*
X46530000Y-82153333D01*
X46482380Y-82248571D01*
X46482380Y-82439047D01*
X46530000Y-82534285D01*
X46625238Y-82629523D01*
X46815714Y-82677142D01*
X47149047Y-82677142D01*
X47339523Y-82629523D01*
X47434761Y-82534285D01*
X47482380Y-82439047D01*
X47482380Y-82248571D01*
X46910952Y-83248571D02*
X46863333Y-83153333D01*
X46815714Y-83105714D01*
X46720476Y-83058095D01*
X46672857Y-83058095D01*
X46577619Y-83105714D01*
X46530000Y-83153333D01*
X46482380Y-83248571D01*
X46482380Y-83439047D01*
X46530000Y-83534285D01*
X46577619Y-83581904D01*
X46672857Y-83629523D01*
X46720476Y-83629523D01*
X46815714Y-83581904D01*
X46863333Y-83534285D01*
X46910952Y-83439047D01*
X46910952Y-83248571D01*
X46958571Y-83153333D01*
X47006190Y-83105714D01*
X47101428Y-83058095D01*
X47291904Y-83058095D01*
X47387142Y-83105714D01*
X47434761Y-83153333D01*
X47482380Y-83248571D01*
X47482380Y-83439047D01*
X47434761Y-83534285D01*
X47387142Y-83581904D01*
X47291904Y-83629523D01*
X47101428Y-83629523D01*
X47006190Y-83581904D01*
X46958571Y-83534285D01*
X46910952Y-83439047D01*
%TO.C,Q9*%
X37417619Y-82724761D02*
X37370000Y-82629523D01*
X37274761Y-82534285D01*
X37131904Y-82391428D01*
X37084285Y-82296190D01*
X37084285Y-82200952D01*
X37322380Y-82248571D02*
X37274761Y-82153333D01*
X37179523Y-82058095D01*
X36989047Y-82010476D01*
X36655714Y-82010476D01*
X36465238Y-82058095D01*
X36370000Y-82153333D01*
X36322380Y-82248571D01*
X36322380Y-82439047D01*
X36370000Y-82534285D01*
X36465238Y-82629523D01*
X36655714Y-82677142D01*
X36989047Y-82677142D01*
X37179523Y-82629523D01*
X37274761Y-82534285D01*
X37322380Y-82439047D01*
X37322380Y-82248571D01*
X37322380Y-83153333D02*
X37322380Y-83343809D01*
X37274761Y-83439047D01*
X37227142Y-83486666D01*
X37084285Y-83581904D01*
X36893809Y-83629523D01*
X36512857Y-83629523D01*
X36417619Y-83581904D01*
X36370000Y-83534285D01*
X36322380Y-83439047D01*
X36322380Y-83248571D01*
X36370000Y-83153333D01*
X36417619Y-83105714D01*
X36512857Y-83058095D01*
X36750952Y-83058095D01*
X36846190Y-83105714D01*
X36893809Y-83153333D01*
X36941428Y-83248571D01*
X36941428Y-83439047D01*
X36893809Y-83534285D01*
X36846190Y-83581904D01*
X36750952Y-83629523D01*
%TO.C,Q10*%
X27257619Y-82248571D02*
X27210000Y-82153333D01*
X27114761Y-82058095D01*
X26971904Y-81915238D01*
X26924285Y-81820000D01*
X26924285Y-81724761D01*
X27162380Y-81772380D02*
X27114761Y-81677142D01*
X27019523Y-81581904D01*
X26829047Y-81534285D01*
X26495714Y-81534285D01*
X26305238Y-81581904D01*
X26210000Y-81677142D01*
X26162380Y-81772380D01*
X26162380Y-81962857D01*
X26210000Y-82058095D01*
X26305238Y-82153333D01*
X26495714Y-82200952D01*
X26829047Y-82200952D01*
X27019523Y-82153333D01*
X27114761Y-82058095D01*
X27162380Y-81962857D01*
X27162380Y-81772380D01*
X27162380Y-83153333D02*
X27162380Y-82581904D01*
X27162380Y-82867619D02*
X26162380Y-82867619D01*
X26305238Y-82772380D01*
X26400476Y-82677142D01*
X26448095Y-82581904D01*
X26162380Y-83772380D02*
X26162380Y-83867619D01*
X26210000Y-83962857D01*
X26257619Y-84010476D01*
X26352857Y-84058095D01*
X26543333Y-84105714D01*
X26781428Y-84105714D01*
X26971904Y-84058095D01*
X27067142Y-84010476D01*
X27114761Y-83962857D01*
X27162380Y-83867619D01*
X27162380Y-83772380D01*
X27114761Y-83677142D01*
X27067142Y-83629523D01*
X26971904Y-83581904D01*
X26781428Y-83534285D01*
X26543333Y-83534285D01*
X26352857Y-83581904D01*
X26257619Y-83629523D01*
X26210000Y-83677142D01*
X26162380Y-83772380D01*
%TO.C,R6*%
X123516380Y-90749333D02*
X123040190Y-90416000D01*
X123516380Y-90177904D02*
X122516380Y-90177904D01*
X122516380Y-90558857D01*
X122564000Y-90654095D01*
X122611619Y-90701714D01*
X122706857Y-90749333D01*
X122849714Y-90749333D01*
X122944952Y-90701714D01*
X122992571Y-90654095D01*
X123040190Y-90558857D01*
X123040190Y-90177904D01*
X122516380Y-91606476D02*
X122516380Y-91416000D01*
X122564000Y-91320761D01*
X122611619Y-91273142D01*
X122754476Y-91177904D01*
X122944952Y-91130285D01*
X123325904Y-91130285D01*
X123421142Y-91177904D01*
X123468761Y-91225523D01*
X123516380Y-91320761D01*
X123516380Y-91511238D01*
X123468761Y-91606476D01*
X123421142Y-91654095D01*
X123325904Y-91701714D01*
X123087809Y-91701714D01*
X122992571Y-91654095D01*
X122944952Y-91606476D01*
X122897333Y-91511238D01*
X122897333Y-91320761D01*
X122944952Y-91225523D01*
X122992571Y-91177904D01*
X123087809Y-91130285D01*
%TO.C,R7*%
X113102380Y-91543333D02*
X112626190Y-91210000D01*
X113102380Y-90971904D02*
X112102380Y-90971904D01*
X112102380Y-91352857D01*
X112150000Y-91448095D01*
X112197619Y-91495714D01*
X112292857Y-91543333D01*
X112435714Y-91543333D01*
X112530952Y-91495714D01*
X112578571Y-91448095D01*
X112626190Y-91352857D01*
X112626190Y-90971904D01*
X112102380Y-91876666D02*
X112102380Y-92543333D01*
X113102380Y-92114761D01*
%TO.C,R8*%
X102942380Y-91543333D02*
X102466190Y-91210000D01*
X102942380Y-90971904D02*
X101942380Y-90971904D01*
X101942380Y-91352857D01*
X101990000Y-91448095D01*
X102037619Y-91495714D01*
X102132857Y-91543333D01*
X102275714Y-91543333D01*
X102370952Y-91495714D01*
X102418571Y-91448095D01*
X102466190Y-91352857D01*
X102466190Y-90971904D01*
X102370952Y-92114761D02*
X102323333Y-92019523D01*
X102275714Y-91971904D01*
X102180476Y-91924285D01*
X102132857Y-91924285D01*
X102037619Y-91971904D01*
X101990000Y-92019523D01*
X101942380Y-92114761D01*
X101942380Y-92305238D01*
X101990000Y-92400476D01*
X102037619Y-92448095D01*
X102132857Y-92495714D01*
X102180476Y-92495714D01*
X102275714Y-92448095D01*
X102323333Y-92400476D01*
X102370952Y-92305238D01*
X102370952Y-92114761D01*
X102418571Y-92019523D01*
X102466190Y-91971904D01*
X102561428Y-91924285D01*
X102751904Y-91924285D01*
X102847142Y-91971904D01*
X102894761Y-92019523D01*
X102942380Y-92114761D01*
X102942380Y-92305238D01*
X102894761Y-92400476D01*
X102847142Y-92448095D01*
X102751904Y-92495714D01*
X102561428Y-92495714D01*
X102466190Y-92448095D01*
X102418571Y-92400476D01*
X102370952Y-92305238D01*
%TO.C,R9*%
X92782380Y-91543333D02*
X92306190Y-91210000D01*
X92782380Y-90971904D02*
X91782380Y-90971904D01*
X91782380Y-91352857D01*
X91830000Y-91448095D01*
X91877619Y-91495714D01*
X91972857Y-91543333D01*
X92115714Y-91543333D01*
X92210952Y-91495714D01*
X92258571Y-91448095D01*
X92306190Y-91352857D01*
X92306190Y-90971904D01*
X92782380Y-92019523D02*
X92782380Y-92210000D01*
X92734761Y-92305238D01*
X92687142Y-92352857D01*
X92544285Y-92448095D01*
X92353809Y-92495714D01*
X91972857Y-92495714D01*
X91877619Y-92448095D01*
X91830000Y-92400476D01*
X91782380Y-92305238D01*
X91782380Y-92114761D01*
X91830000Y-92019523D01*
X91877619Y-91971904D01*
X91972857Y-91924285D01*
X92210952Y-91924285D01*
X92306190Y-91971904D01*
X92353809Y-92019523D01*
X92401428Y-92114761D01*
X92401428Y-92305238D01*
X92353809Y-92400476D01*
X92306190Y-92448095D01*
X92210952Y-92495714D01*
%TO.C,R10*%
X82622380Y-91067142D02*
X82146190Y-90733809D01*
X82622380Y-90495714D02*
X81622380Y-90495714D01*
X81622380Y-90876666D01*
X81670000Y-90971904D01*
X81717619Y-91019523D01*
X81812857Y-91067142D01*
X81955714Y-91067142D01*
X82050952Y-91019523D01*
X82098571Y-90971904D01*
X82146190Y-90876666D01*
X82146190Y-90495714D01*
X82622380Y-92019523D02*
X82622380Y-91448095D01*
X82622380Y-91733809D02*
X81622380Y-91733809D01*
X81765238Y-91638571D01*
X81860476Y-91543333D01*
X81908095Y-91448095D01*
X81622380Y-92638571D02*
X81622380Y-92733809D01*
X81670000Y-92829047D01*
X81717619Y-92876666D01*
X81812857Y-92924285D01*
X82003333Y-92971904D01*
X82241428Y-92971904D01*
X82431904Y-92924285D01*
X82527142Y-92876666D01*
X82574761Y-92829047D01*
X82622380Y-92733809D01*
X82622380Y-92638571D01*
X82574761Y-92543333D01*
X82527142Y-92495714D01*
X82431904Y-92448095D01*
X82241428Y-92400476D01*
X82003333Y-92400476D01*
X81812857Y-92448095D01*
X81717619Y-92495714D01*
X81670000Y-92543333D01*
X81622380Y-92638571D01*
%TO.C,R16*%
X72462380Y-91067142D02*
X71986190Y-90733809D01*
X72462380Y-90495714D02*
X71462380Y-90495714D01*
X71462380Y-90876666D01*
X71510000Y-90971904D01*
X71557619Y-91019523D01*
X71652857Y-91067142D01*
X71795714Y-91067142D01*
X71890952Y-91019523D01*
X71938571Y-90971904D01*
X71986190Y-90876666D01*
X71986190Y-90495714D01*
X72462380Y-92019523D02*
X72462380Y-91448095D01*
X72462380Y-91733809D02*
X71462380Y-91733809D01*
X71605238Y-91638571D01*
X71700476Y-91543333D01*
X71748095Y-91448095D01*
X71462380Y-92876666D02*
X71462380Y-92686190D01*
X71510000Y-92590952D01*
X71557619Y-92543333D01*
X71700476Y-92448095D01*
X71890952Y-92400476D01*
X72271904Y-92400476D01*
X72367142Y-92448095D01*
X72414761Y-92495714D01*
X72462380Y-92590952D01*
X72462380Y-92781428D01*
X72414761Y-92876666D01*
X72367142Y-92924285D01*
X72271904Y-92971904D01*
X72033809Y-92971904D01*
X71938571Y-92924285D01*
X71890952Y-92876666D01*
X71843333Y-92781428D01*
X71843333Y-92590952D01*
X71890952Y-92495714D01*
X71938571Y-92448095D01*
X72033809Y-92400476D01*
%TO.C,R17*%
X62302380Y-91067142D02*
X61826190Y-90733809D01*
X62302380Y-90495714D02*
X61302380Y-90495714D01*
X61302380Y-90876666D01*
X61350000Y-90971904D01*
X61397619Y-91019523D01*
X61492857Y-91067142D01*
X61635714Y-91067142D01*
X61730952Y-91019523D01*
X61778571Y-90971904D01*
X61826190Y-90876666D01*
X61826190Y-90495714D01*
X62302380Y-92019523D02*
X62302380Y-91448095D01*
X62302380Y-91733809D02*
X61302380Y-91733809D01*
X61445238Y-91638571D01*
X61540476Y-91543333D01*
X61588095Y-91448095D01*
X61302380Y-92352857D02*
X61302380Y-93019523D01*
X62302380Y-92590952D01*
%TO.C,R18*%
X52142380Y-91067142D02*
X51666190Y-90733809D01*
X52142380Y-90495714D02*
X51142380Y-90495714D01*
X51142380Y-90876666D01*
X51190000Y-90971904D01*
X51237619Y-91019523D01*
X51332857Y-91067142D01*
X51475714Y-91067142D01*
X51570952Y-91019523D01*
X51618571Y-90971904D01*
X51666190Y-90876666D01*
X51666190Y-90495714D01*
X52142380Y-92019523D02*
X52142380Y-91448095D01*
X52142380Y-91733809D02*
X51142380Y-91733809D01*
X51285238Y-91638571D01*
X51380476Y-91543333D01*
X51428095Y-91448095D01*
X51570952Y-92590952D02*
X51523333Y-92495714D01*
X51475714Y-92448095D01*
X51380476Y-92400476D01*
X51332857Y-92400476D01*
X51237619Y-92448095D01*
X51190000Y-92495714D01*
X51142380Y-92590952D01*
X51142380Y-92781428D01*
X51190000Y-92876666D01*
X51237619Y-92924285D01*
X51332857Y-92971904D01*
X51380476Y-92971904D01*
X51475714Y-92924285D01*
X51523333Y-92876666D01*
X51570952Y-92781428D01*
X51570952Y-92590952D01*
X51618571Y-92495714D01*
X51666190Y-92448095D01*
X51761428Y-92400476D01*
X51951904Y-92400476D01*
X52047142Y-92448095D01*
X52094761Y-92495714D01*
X52142380Y-92590952D01*
X52142380Y-92781428D01*
X52094761Y-92876666D01*
X52047142Y-92924285D01*
X51951904Y-92971904D01*
X51761428Y-92971904D01*
X51666190Y-92924285D01*
X51618571Y-92876666D01*
X51570952Y-92781428D01*
%TO.C,R19*%
X41982380Y-91067142D02*
X41506190Y-90733809D01*
X41982380Y-90495714D02*
X40982380Y-90495714D01*
X40982380Y-90876666D01*
X41030000Y-90971904D01*
X41077619Y-91019523D01*
X41172857Y-91067142D01*
X41315714Y-91067142D01*
X41410952Y-91019523D01*
X41458571Y-90971904D01*
X41506190Y-90876666D01*
X41506190Y-90495714D01*
X41982380Y-92019523D02*
X41982380Y-91448095D01*
X41982380Y-91733809D02*
X40982380Y-91733809D01*
X41125238Y-91638571D01*
X41220476Y-91543333D01*
X41268095Y-91448095D01*
X41982380Y-92495714D02*
X41982380Y-92686190D01*
X41934761Y-92781428D01*
X41887142Y-92829047D01*
X41744285Y-92924285D01*
X41553809Y-92971904D01*
X41172857Y-92971904D01*
X41077619Y-92924285D01*
X41030000Y-92876666D01*
X40982380Y-92781428D01*
X40982380Y-92590952D01*
X41030000Y-92495714D01*
X41077619Y-92448095D01*
X41172857Y-92400476D01*
X41410952Y-92400476D01*
X41506190Y-92448095D01*
X41553809Y-92495714D01*
X41601428Y-92590952D01*
X41601428Y-92781428D01*
X41553809Y-92876666D01*
X41506190Y-92924285D01*
X41410952Y-92971904D01*
%TO.C,R20*%
X31822380Y-91067142D02*
X31346190Y-90733809D01*
X31822380Y-90495714D02*
X30822380Y-90495714D01*
X30822380Y-90876666D01*
X30870000Y-90971904D01*
X30917619Y-91019523D01*
X31012857Y-91067142D01*
X31155714Y-91067142D01*
X31250952Y-91019523D01*
X31298571Y-90971904D01*
X31346190Y-90876666D01*
X31346190Y-90495714D01*
X30917619Y-91448095D02*
X30870000Y-91495714D01*
X30822380Y-91590952D01*
X30822380Y-91829047D01*
X30870000Y-91924285D01*
X30917619Y-91971904D01*
X31012857Y-92019523D01*
X31108095Y-92019523D01*
X31250952Y-91971904D01*
X31822380Y-91400476D01*
X31822380Y-92019523D01*
X30822380Y-92638571D02*
X30822380Y-92733809D01*
X30870000Y-92829047D01*
X30917619Y-92876666D01*
X31012857Y-92924285D01*
X31203333Y-92971904D01*
X31441428Y-92971904D01*
X31631904Y-92924285D01*
X31727142Y-92876666D01*
X31774761Y-92829047D01*
X31822380Y-92733809D01*
X31822380Y-92638571D01*
X31774761Y-92543333D01*
X31727142Y-92495714D01*
X31631904Y-92448095D01*
X31441428Y-92400476D01*
X31203333Y-92400476D01*
X31012857Y-92448095D01*
X30917619Y-92495714D01*
X30870000Y-92543333D01*
X30822380Y-92638571D01*
%TO.C,R31*%
X109292380Y-63127142D02*
X108816190Y-62793809D01*
X109292380Y-62555714D02*
X108292380Y-62555714D01*
X108292380Y-62936666D01*
X108340000Y-63031904D01*
X108387619Y-63079523D01*
X108482857Y-63127142D01*
X108625714Y-63127142D01*
X108720952Y-63079523D01*
X108768571Y-63031904D01*
X108816190Y-62936666D01*
X108816190Y-62555714D01*
X108292380Y-63460476D02*
X108292380Y-64079523D01*
X108673333Y-63746190D01*
X108673333Y-63889047D01*
X108720952Y-63984285D01*
X108768571Y-64031904D01*
X108863809Y-64079523D01*
X109101904Y-64079523D01*
X109197142Y-64031904D01*
X109244761Y-63984285D01*
X109292380Y-63889047D01*
X109292380Y-63603333D01*
X109244761Y-63508095D01*
X109197142Y-63460476D01*
X109292380Y-65031904D02*
X109292380Y-64460476D01*
X109292380Y-64746190D02*
X108292380Y-64746190D01*
X108435238Y-64650952D01*
X108530476Y-64555714D01*
X108578095Y-64460476D01*
%TO.C,R32*%
X105482380Y-63127142D02*
X105006190Y-62793809D01*
X105482380Y-62555714D02*
X104482380Y-62555714D01*
X104482380Y-62936666D01*
X104530000Y-63031904D01*
X104577619Y-63079523D01*
X104672857Y-63127142D01*
X104815714Y-63127142D01*
X104910952Y-63079523D01*
X104958571Y-63031904D01*
X105006190Y-62936666D01*
X105006190Y-62555714D01*
X104482380Y-63460476D02*
X104482380Y-64079523D01*
X104863333Y-63746190D01*
X104863333Y-63889047D01*
X104910952Y-63984285D01*
X104958571Y-64031904D01*
X105053809Y-64079523D01*
X105291904Y-64079523D01*
X105387142Y-64031904D01*
X105434761Y-63984285D01*
X105482380Y-63889047D01*
X105482380Y-63603333D01*
X105434761Y-63508095D01*
X105387142Y-63460476D01*
X104577619Y-64460476D02*
X104530000Y-64508095D01*
X104482380Y-64603333D01*
X104482380Y-64841428D01*
X104530000Y-64936666D01*
X104577619Y-64984285D01*
X104672857Y-65031904D01*
X104768095Y-65031904D01*
X104910952Y-64984285D01*
X105482380Y-64412857D01*
X105482380Y-65031904D01*
%TO.C,R33*%
X101672380Y-63127142D02*
X101196190Y-62793809D01*
X101672380Y-62555714D02*
X100672380Y-62555714D01*
X100672380Y-62936666D01*
X100720000Y-63031904D01*
X100767619Y-63079523D01*
X100862857Y-63127142D01*
X101005714Y-63127142D01*
X101100952Y-63079523D01*
X101148571Y-63031904D01*
X101196190Y-62936666D01*
X101196190Y-62555714D01*
X100672380Y-63460476D02*
X100672380Y-64079523D01*
X101053333Y-63746190D01*
X101053333Y-63889047D01*
X101100952Y-63984285D01*
X101148571Y-64031904D01*
X101243809Y-64079523D01*
X101481904Y-64079523D01*
X101577142Y-64031904D01*
X101624761Y-63984285D01*
X101672380Y-63889047D01*
X101672380Y-63603333D01*
X101624761Y-63508095D01*
X101577142Y-63460476D01*
X100672380Y-64412857D02*
X100672380Y-65031904D01*
X101053333Y-64698571D01*
X101053333Y-64841428D01*
X101100952Y-64936666D01*
X101148571Y-64984285D01*
X101243809Y-65031904D01*
X101481904Y-65031904D01*
X101577142Y-64984285D01*
X101624761Y-64936666D01*
X101672380Y-64841428D01*
X101672380Y-64555714D01*
X101624761Y-64460476D01*
X101577142Y-64412857D01*
%TO.C,R34*%
X97862380Y-63127142D02*
X97386190Y-62793809D01*
X97862380Y-62555714D02*
X96862380Y-62555714D01*
X96862380Y-62936666D01*
X96910000Y-63031904D01*
X96957619Y-63079523D01*
X97052857Y-63127142D01*
X97195714Y-63127142D01*
X97290952Y-63079523D01*
X97338571Y-63031904D01*
X97386190Y-62936666D01*
X97386190Y-62555714D01*
X96862380Y-63460476D02*
X96862380Y-64079523D01*
X97243333Y-63746190D01*
X97243333Y-63889047D01*
X97290952Y-63984285D01*
X97338571Y-64031904D01*
X97433809Y-64079523D01*
X97671904Y-64079523D01*
X97767142Y-64031904D01*
X97814761Y-63984285D01*
X97862380Y-63889047D01*
X97862380Y-63603333D01*
X97814761Y-63508095D01*
X97767142Y-63460476D01*
X97195714Y-64936666D02*
X97862380Y-64936666D01*
X96814761Y-64698571D02*
X97529047Y-64460476D01*
X97529047Y-65079523D01*
%TO.C,R35*%
X94052380Y-63127142D02*
X93576190Y-62793809D01*
X94052380Y-62555714D02*
X93052380Y-62555714D01*
X93052380Y-62936666D01*
X93100000Y-63031904D01*
X93147619Y-63079523D01*
X93242857Y-63127142D01*
X93385714Y-63127142D01*
X93480952Y-63079523D01*
X93528571Y-63031904D01*
X93576190Y-62936666D01*
X93576190Y-62555714D01*
X93052380Y-63460476D02*
X93052380Y-64079523D01*
X93433333Y-63746190D01*
X93433333Y-63889047D01*
X93480952Y-63984285D01*
X93528571Y-64031904D01*
X93623809Y-64079523D01*
X93861904Y-64079523D01*
X93957142Y-64031904D01*
X94004761Y-63984285D01*
X94052380Y-63889047D01*
X94052380Y-63603333D01*
X94004761Y-63508095D01*
X93957142Y-63460476D01*
X93052380Y-64984285D02*
X93052380Y-64508095D01*
X93528571Y-64460476D01*
X93480952Y-64508095D01*
X93433333Y-64603333D01*
X93433333Y-64841428D01*
X93480952Y-64936666D01*
X93528571Y-64984285D01*
X93623809Y-65031904D01*
X93861904Y-65031904D01*
X93957142Y-64984285D01*
X94004761Y-64936666D01*
X94052380Y-64841428D01*
X94052380Y-64603333D01*
X94004761Y-64508095D01*
X93957142Y-64460476D01*
%TO.C,R36*%
X90242380Y-63127142D02*
X89766190Y-62793809D01*
X90242380Y-62555714D02*
X89242380Y-62555714D01*
X89242380Y-62936666D01*
X89290000Y-63031904D01*
X89337619Y-63079523D01*
X89432857Y-63127142D01*
X89575714Y-63127142D01*
X89670952Y-63079523D01*
X89718571Y-63031904D01*
X89766190Y-62936666D01*
X89766190Y-62555714D01*
X89242380Y-63460476D02*
X89242380Y-64079523D01*
X89623333Y-63746190D01*
X89623333Y-63889047D01*
X89670952Y-63984285D01*
X89718571Y-64031904D01*
X89813809Y-64079523D01*
X90051904Y-64079523D01*
X90147142Y-64031904D01*
X90194761Y-63984285D01*
X90242380Y-63889047D01*
X90242380Y-63603333D01*
X90194761Y-63508095D01*
X90147142Y-63460476D01*
X89242380Y-64936666D02*
X89242380Y-64746190D01*
X89290000Y-64650952D01*
X89337619Y-64603333D01*
X89480476Y-64508095D01*
X89670952Y-64460476D01*
X90051904Y-64460476D01*
X90147142Y-64508095D01*
X90194761Y-64555714D01*
X90242380Y-64650952D01*
X90242380Y-64841428D01*
X90194761Y-64936666D01*
X90147142Y-64984285D01*
X90051904Y-65031904D01*
X89813809Y-65031904D01*
X89718571Y-64984285D01*
X89670952Y-64936666D01*
X89623333Y-64841428D01*
X89623333Y-64650952D01*
X89670952Y-64555714D01*
X89718571Y-64508095D01*
X89813809Y-64460476D01*
%TO.C,R37*%
X86432380Y-63127142D02*
X85956190Y-62793809D01*
X86432380Y-62555714D02*
X85432380Y-62555714D01*
X85432380Y-62936666D01*
X85480000Y-63031904D01*
X85527619Y-63079523D01*
X85622857Y-63127142D01*
X85765714Y-63127142D01*
X85860952Y-63079523D01*
X85908571Y-63031904D01*
X85956190Y-62936666D01*
X85956190Y-62555714D01*
X85432380Y-63460476D02*
X85432380Y-64079523D01*
X85813333Y-63746190D01*
X85813333Y-63889047D01*
X85860952Y-63984285D01*
X85908571Y-64031904D01*
X86003809Y-64079523D01*
X86241904Y-64079523D01*
X86337142Y-64031904D01*
X86384761Y-63984285D01*
X86432380Y-63889047D01*
X86432380Y-63603333D01*
X86384761Y-63508095D01*
X86337142Y-63460476D01*
X85432380Y-64412857D02*
X85432380Y-65079523D01*
X86432380Y-64650952D01*
%TO.C,R38*%
X82622380Y-63172143D02*
X82146190Y-62838810D01*
X82622380Y-62600715D02*
X81622380Y-62600715D01*
X81622380Y-62981667D01*
X81670000Y-63076905D01*
X81717619Y-63124524D01*
X81812857Y-63172143D01*
X81955714Y-63172143D01*
X82050952Y-63124524D01*
X82098571Y-63076905D01*
X82146190Y-62981667D01*
X82146190Y-62600715D01*
X81622380Y-63505477D02*
X81622380Y-64124524D01*
X82003333Y-63791191D01*
X82003333Y-63934048D01*
X82050952Y-64029286D01*
X82098571Y-64076905D01*
X82193809Y-64124524D01*
X82431904Y-64124524D01*
X82527142Y-64076905D01*
X82574761Y-64029286D01*
X82622380Y-63934048D01*
X82622380Y-63648334D01*
X82574761Y-63553096D01*
X82527142Y-63505477D01*
X82050952Y-64695953D02*
X82003333Y-64600715D01*
X81955714Y-64553096D01*
X81860476Y-64505477D01*
X81812857Y-64505477D01*
X81717619Y-64553096D01*
X81670000Y-64600715D01*
X81622380Y-64695953D01*
X81622380Y-64886429D01*
X81670000Y-64981667D01*
X81717619Y-65029286D01*
X81812857Y-65076905D01*
X81860476Y-65076905D01*
X81955714Y-65029286D01*
X82003333Y-64981667D01*
X82050952Y-64886429D01*
X82050952Y-64695953D01*
X82098571Y-64600715D01*
X82146190Y-64553096D01*
X82241428Y-64505477D01*
X82431904Y-64505477D01*
X82527142Y-64553096D01*
X82574761Y-64600715D01*
X82622380Y-64695953D01*
X82622380Y-64886429D01*
X82574761Y-64981667D01*
X82527142Y-65029286D01*
X82431904Y-65076905D01*
X82241428Y-65076905D01*
X82146190Y-65029286D01*
X82098571Y-64981667D01*
X82050952Y-64886429D01*
%TO.C,R39*%
X78812380Y-63127142D02*
X78336190Y-62793809D01*
X78812380Y-62555714D02*
X77812380Y-62555714D01*
X77812380Y-62936666D01*
X77860000Y-63031904D01*
X77907619Y-63079523D01*
X78002857Y-63127142D01*
X78145714Y-63127142D01*
X78240952Y-63079523D01*
X78288571Y-63031904D01*
X78336190Y-62936666D01*
X78336190Y-62555714D01*
X77812380Y-63460476D02*
X77812380Y-64079523D01*
X78193333Y-63746190D01*
X78193333Y-63889047D01*
X78240952Y-63984285D01*
X78288571Y-64031904D01*
X78383809Y-64079523D01*
X78621904Y-64079523D01*
X78717142Y-64031904D01*
X78764761Y-63984285D01*
X78812380Y-63889047D01*
X78812380Y-63603333D01*
X78764761Y-63508095D01*
X78717142Y-63460476D01*
X78812380Y-64555714D02*
X78812380Y-64746190D01*
X78764761Y-64841428D01*
X78717142Y-64889047D01*
X78574285Y-64984285D01*
X78383809Y-65031904D01*
X78002857Y-65031904D01*
X77907619Y-64984285D01*
X77860000Y-64936666D01*
X77812380Y-64841428D01*
X77812380Y-64650952D01*
X77860000Y-64555714D01*
X77907619Y-64508095D01*
X78002857Y-64460476D01*
X78240952Y-64460476D01*
X78336190Y-64508095D01*
X78383809Y-64555714D01*
X78431428Y-64650952D01*
X78431428Y-64841428D01*
X78383809Y-64936666D01*
X78336190Y-64984285D01*
X78240952Y-65031904D01*
%TO.C,R40*%
X75002380Y-63127142D02*
X74526190Y-62793809D01*
X75002380Y-62555714D02*
X74002380Y-62555714D01*
X74002380Y-62936666D01*
X74050000Y-63031904D01*
X74097619Y-63079523D01*
X74192857Y-63127142D01*
X74335714Y-63127142D01*
X74430952Y-63079523D01*
X74478571Y-63031904D01*
X74526190Y-62936666D01*
X74526190Y-62555714D01*
X74335714Y-63984285D02*
X75002380Y-63984285D01*
X73954761Y-63746190D02*
X74669047Y-63508095D01*
X74669047Y-64127142D01*
X74002380Y-64698571D02*
X74002380Y-64793809D01*
X74050000Y-64889047D01*
X74097619Y-64936666D01*
X74192857Y-64984285D01*
X74383333Y-65031904D01*
X74621428Y-65031904D01*
X74811904Y-64984285D01*
X74907142Y-64936666D01*
X74954761Y-64889047D01*
X75002380Y-64793809D01*
X75002380Y-64698571D01*
X74954761Y-64603333D01*
X74907142Y-64555714D01*
X74811904Y-64508095D01*
X74621428Y-64460476D01*
X74383333Y-64460476D01*
X74192857Y-64508095D01*
X74097619Y-64555714D01*
X74050000Y-64603333D01*
X74002380Y-64698571D01*
%TO.C,R41*%
X60062857Y-61032380D02*
X60396190Y-60556190D01*
X60634285Y-61032380D02*
X60634285Y-60032380D01*
X60253333Y-60032380D01*
X60158095Y-60080000D01*
X60110476Y-60127619D01*
X60062857Y-60222857D01*
X60062857Y-60365714D01*
X60110476Y-60460952D01*
X60158095Y-60508571D01*
X60253333Y-60556190D01*
X60634285Y-60556190D01*
X59205714Y-60365714D02*
X59205714Y-61032380D01*
X59443809Y-59984761D02*
X59681904Y-60699047D01*
X59062857Y-60699047D01*
X58158095Y-61032380D02*
X58729523Y-61032380D01*
X58443809Y-61032380D02*
X58443809Y-60032380D01*
X58539047Y-60175238D01*
X58634285Y-60270476D01*
X58729523Y-60318095D01*
%TD*%
M02*
