%TF.GenerationSoftware,KiCad,Pcbnew,(5.1.9)-1*%
%TF.CreationDate,2021-03-17T19:06:28+01:00*%
%TF.ProjectId,Nvum_CNC_expander,4e76756d-5f43-44e4-935f-657870616e64,1*%
%TF.SameCoordinates,Original*%
%TF.FileFunction,Paste,Bot*%
%TF.FilePolarity,Positive*%
%FSLAX46Y46*%
G04 Gerber Fmt 4.6, Leading zero omitted, Abs format (unit mm)*
G04 Created by KiCad (PCBNEW (5.1.9)-1) date 2021-03-17 19:06:28*
%MOMM*%
%LPD*%
G01*
G04 APERTURE LIST*
%ADD10R,0.800000X0.900000*%
G04 APERTURE END LIST*
%TO.C,C1*%
G36*
G01*
X66627500Y-61755000D02*
X66627500Y-62705000D01*
G75*
G02*
X66377500Y-62955000I-250000J0D01*
G01*
X65702500Y-62955000D01*
G75*
G02*
X65452500Y-62705000I0J250000D01*
G01*
X65452500Y-61755000D01*
G75*
G02*
X65702500Y-61505000I250000J0D01*
G01*
X66377500Y-61505000D01*
G75*
G02*
X66627500Y-61755000I0J-250000D01*
G01*
G37*
G36*
G01*
X64552500Y-61755000D02*
X64552500Y-62705000D01*
G75*
G02*
X64302500Y-62955000I-250000J0D01*
G01*
X63627500Y-62955000D01*
G75*
G02*
X63377500Y-62705000I0J250000D01*
G01*
X63377500Y-61755000D01*
G75*
G02*
X63627500Y-61505000I250000J0D01*
G01*
X64302500Y-61505000D01*
G75*
G02*
X64552500Y-61755000I0J-250000D01*
G01*
G37*
%TD*%
D10*
%TO.C,Q1*%
X120904000Y-83566000D03*
X121854000Y-81566000D03*
X119954000Y-81566000D03*
%TD*%
%TO.C,Q2*%
X109540000Y-81820000D03*
X111440000Y-81820000D03*
X110490000Y-83820000D03*
%TD*%
%TO.C,Q3*%
X100330000Y-83820000D03*
X101280000Y-81820000D03*
X99380000Y-81820000D03*
%TD*%
%TO.C,Q4*%
X89540000Y-81820000D03*
X91440000Y-81820000D03*
X90490000Y-83820000D03*
%TD*%
%TO.C,Q5*%
X79060000Y-81820000D03*
X80960000Y-81820000D03*
X80010000Y-83820000D03*
%TD*%
%TO.C,Q6*%
X70170000Y-83820000D03*
X71120000Y-81820000D03*
X69220000Y-81820000D03*
%TD*%
%TO.C,Q7*%
X59690000Y-83820000D03*
X60640000Y-81820000D03*
X58740000Y-81820000D03*
%TD*%
%TO.C,Q8*%
X49530000Y-83820000D03*
X50480000Y-81820000D03*
X48580000Y-81820000D03*
%TD*%
%TO.C,Q9*%
X38420000Y-81820000D03*
X40320000Y-81820000D03*
X39370000Y-83820000D03*
%TD*%
%TO.C,Q10*%
X28260000Y-81820000D03*
X30160000Y-81820000D03*
X29210000Y-83820000D03*
%TD*%
%TO.C,R6*%
G36*
G01*
X124263999Y-89316000D02*
X125164001Y-89316000D01*
G75*
G02*
X125414000Y-89565999I0J-249999D01*
G01*
X125414000Y-90266001D01*
G75*
G02*
X125164001Y-90516000I-249999J0D01*
G01*
X124263999Y-90516000D01*
G75*
G02*
X124014000Y-90266001I0J249999D01*
G01*
X124014000Y-89565999D01*
G75*
G02*
X124263999Y-89316000I249999J0D01*
G01*
G37*
G36*
G01*
X124263999Y-91316000D02*
X125164001Y-91316000D01*
G75*
G02*
X125414000Y-91565999I0J-249999D01*
G01*
X125414000Y-92266001D01*
G75*
G02*
X125164001Y-92516000I-249999J0D01*
G01*
X124263999Y-92516000D01*
G75*
G02*
X124014000Y-92266001I0J249999D01*
G01*
X124014000Y-91565999D01*
G75*
G02*
X124263999Y-91316000I249999J0D01*
G01*
G37*
%TD*%
%TO.C,R7*%
G36*
G01*
X113849999Y-90110000D02*
X114750001Y-90110000D01*
G75*
G02*
X115000000Y-90359999I0J-249999D01*
G01*
X115000000Y-91060001D01*
G75*
G02*
X114750001Y-91310000I-249999J0D01*
G01*
X113849999Y-91310000D01*
G75*
G02*
X113600000Y-91060001I0J249999D01*
G01*
X113600000Y-90359999D01*
G75*
G02*
X113849999Y-90110000I249999J0D01*
G01*
G37*
G36*
G01*
X113849999Y-92110000D02*
X114750001Y-92110000D01*
G75*
G02*
X115000000Y-92359999I0J-249999D01*
G01*
X115000000Y-93060001D01*
G75*
G02*
X114750001Y-93310000I-249999J0D01*
G01*
X113849999Y-93310000D01*
G75*
G02*
X113600000Y-93060001I0J249999D01*
G01*
X113600000Y-92359999D01*
G75*
G02*
X113849999Y-92110000I249999J0D01*
G01*
G37*
%TD*%
%TO.C,R8*%
G36*
G01*
X103689999Y-92110000D02*
X104590001Y-92110000D01*
G75*
G02*
X104840000Y-92359999I0J-249999D01*
G01*
X104840000Y-93060001D01*
G75*
G02*
X104590001Y-93310000I-249999J0D01*
G01*
X103689999Y-93310000D01*
G75*
G02*
X103440000Y-93060001I0J249999D01*
G01*
X103440000Y-92359999D01*
G75*
G02*
X103689999Y-92110000I249999J0D01*
G01*
G37*
G36*
G01*
X103689999Y-90110000D02*
X104590001Y-90110000D01*
G75*
G02*
X104840000Y-90359999I0J-249999D01*
G01*
X104840000Y-91060001D01*
G75*
G02*
X104590001Y-91310000I-249999J0D01*
G01*
X103689999Y-91310000D01*
G75*
G02*
X103440000Y-91060001I0J249999D01*
G01*
X103440000Y-90359999D01*
G75*
G02*
X103689999Y-90110000I249999J0D01*
G01*
G37*
%TD*%
%TO.C,R9*%
G36*
G01*
X93529999Y-90110000D02*
X94430001Y-90110000D01*
G75*
G02*
X94680000Y-90359999I0J-249999D01*
G01*
X94680000Y-91060001D01*
G75*
G02*
X94430001Y-91310000I-249999J0D01*
G01*
X93529999Y-91310000D01*
G75*
G02*
X93280000Y-91060001I0J249999D01*
G01*
X93280000Y-90359999D01*
G75*
G02*
X93529999Y-90110000I249999J0D01*
G01*
G37*
G36*
G01*
X93529999Y-92110000D02*
X94430001Y-92110000D01*
G75*
G02*
X94680000Y-92359999I0J-249999D01*
G01*
X94680000Y-93060001D01*
G75*
G02*
X94430001Y-93310000I-249999J0D01*
G01*
X93529999Y-93310000D01*
G75*
G02*
X93280000Y-93060001I0J249999D01*
G01*
X93280000Y-92359999D01*
G75*
G02*
X93529999Y-92110000I249999J0D01*
G01*
G37*
%TD*%
%TO.C,R10*%
G36*
G01*
X83369999Y-90110000D02*
X84270001Y-90110000D01*
G75*
G02*
X84520000Y-90359999I0J-249999D01*
G01*
X84520000Y-91060001D01*
G75*
G02*
X84270001Y-91310000I-249999J0D01*
G01*
X83369999Y-91310000D01*
G75*
G02*
X83120000Y-91060001I0J249999D01*
G01*
X83120000Y-90359999D01*
G75*
G02*
X83369999Y-90110000I249999J0D01*
G01*
G37*
G36*
G01*
X83369999Y-92110000D02*
X84270001Y-92110000D01*
G75*
G02*
X84520000Y-92359999I0J-249999D01*
G01*
X84520000Y-93060001D01*
G75*
G02*
X84270001Y-93310000I-249999J0D01*
G01*
X83369999Y-93310000D01*
G75*
G02*
X83120000Y-93060001I0J249999D01*
G01*
X83120000Y-92359999D01*
G75*
G02*
X83369999Y-92110000I249999J0D01*
G01*
G37*
%TD*%
%TO.C,R16*%
G36*
G01*
X73209999Y-92110000D02*
X74110001Y-92110000D01*
G75*
G02*
X74360000Y-92359999I0J-249999D01*
G01*
X74360000Y-93060001D01*
G75*
G02*
X74110001Y-93310000I-249999J0D01*
G01*
X73209999Y-93310000D01*
G75*
G02*
X72960000Y-93060001I0J249999D01*
G01*
X72960000Y-92359999D01*
G75*
G02*
X73209999Y-92110000I249999J0D01*
G01*
G37*
G36*
G01*
X73209999Y-90110000D02*
X74110001Y-90110000D01*
G75*
G02*
X74360000Y-90359999I0J-249999D01*
G01*
X74360000Y-91060001D01*
G75*
G02*
X74110001Y-91310000I-249999J0D01*
G01*
X73209999Y-91310000D01*
G75*
G02*
X72960000Y-91060001I0J249999D01*
G01*
X72960000Y-90359999D01*
G75*
G02*
X73209999Y-90110000I249999J0D01*
G01*
G37*
%TD*%
%TO.C,R17*%
G36*
G01*
X63049999Y-90110000D02*
X63950001Y-90110000D01*
G75*
G02*
X64200000Y-90359999I0J-249999D01*
G01*
X64200000Y-91060001D01*
G75*
G02*
X63950001Y-91310000I-249999J0D01*
G01*
X63049999Y-91310000D01*
G75*
G02*
X62800000Y-91060001I0J249999D01*
G01*
X62800000Y-90359999D01*
G75*
G02*
X63049999Y-90110000I249999J0D01*
G01*
G37*
G36*
G01*
X63049999Y-92110000D02*
X63950001Y-92110000D01*
G75*
G02*
X64200000Y-92359999I0J-249999D01*
G01*
X64200000Y-93060001D01*
G75*
G02*
X63950001Y-93310000I-249999J0D01*
G01*
X63049999Y-93310000D01*
G75*
G02*
X62800000Y-93060001I0J249999D01*
G01*
X62800000Y-92359999D01*
G75*
G02*
X63049999Y-92110000I249999J0D01*
G01*
G37*
%TD*%
%TO.C,R18*%
G36*
G01*
X52889999Y-92110000D02*
X53790001Y-92110000D01*
G75*
G02*
X54040000Y-92359999I0J-249999D01*
G01*
X54040000Y-93060001D01*
G75*
G02*
X53790001Y-93310000I-249999J0D01*
G01*
X52889999Y-93310000D01*
G75*
G02*
X52640000Y-93060001I0J249999D01*
G01*
X52640000Y-92359999D01*
G75*
G02*
X52889999Y-92110000I249999J0D01*
G01*
G37*
G36*
G01*
X52889999Y-90110000D02*
X53790001Y-90110000D01*
G75*
G02*
X54040000Y-90359999I0J-249999D01*
G01*
X54040000Y-91060001D01*
G75*
G02*
X53790001Y-91310000I-249999J0D01*
G01*
X52889999Y-91310000D01*
G75*
G02*
X52640000Y-91060001I0J249999D01*
G01*
X52640000Y-90359999D01*
G75*
G02*
X52889999Y-90110000I249999J0D01*
G01*
G37*
%TD*%
%TO.C,R19*%
G36*
G01*
X42729999Y-92110000D02*
X43630001Y-92110000D01*
G75*
G02*
X43880000Y-92359999I0J-249999D01*
G01*
X43880000Y-93060001D01*
G75*
G02*
X43630001Y-93310000I-249999J0D01*
G01*
X42729999Y-93310000D01*
G75*
G02*
X42480000Y-93060001I0J249999D01*
G01*
X42480000Y-92359999D01*
G75*
G02*
X42729999Y-92110000I249999J0D01*
G01*
G37*
G36*
G01*
X42729999Y-90110000D02*
X43630001Y-90110000D01*
G75*
G02*
X43880000Y-90359999I0J-249999D01*
G01*
X43880000Y-91060001D01*
G75*
G02*
X43630001Y-91310000I-249999J0D01*
G01*
X42729999Y-91310000D01*
G75*
G02*
X42480000Y-91060001I0J249999D01*
G01*
X42480000Y-90359999D01*
G75*
G02*
X42729999Y-90110000I249999J0D01*
G01*
G37*
%TD*%
%TO.C,R20*%
G36*
G01*
X32569999Y-92110000D02*
X33470001Y-92110000D01*
G75*
G02*
X33720000Y-92359999I0J-249999D01*
G01*
X33720000Y-93060001D01*
G75*
G02*
X33470001Y-93310000I-249999J0D01*
G01*
X32569999Y-93310000D01*
G75*
G02*
X32320000Y-93060001I0J249999D01*
G01*
X32320000Y-92359999D01*
G75*
G02*
X32569999Y-92110000I249999J0D01*
G01*
G37*
G36*
G01*
X32569999Y-90110000D02*
X33470001Y-90110000D01*
G75*
G02*
X33720000Y-90359999I0J-249999D01*
G01*
X33720000Y-91060001D01*
G75*
G02*
X33470001Y-91310000I-249999J0D01*
G01*
X32569999Y-91310000D01*
G75*
G02*
X32320000Y-91060001I0J249999D01*
G01*
X32320000Y-90359999D01*
G75*
G02*
X32569999Y-90110000I249999J0D01*
G01*
G37*
%TD*%
%TO.C,R31*%
G36*
G01*
X110039999Y-62170000D02*
X110940001Y-62170000D01*
G75*
G02*
X111190000Y-62419999I0J-249999D01*
G01*
X111190000Y-63120001D01*
G75*
G02*
X110940001Y-63370000I-249999J0D01*
G01*
X110039999Y-63370000D01*
G75*
G02*
X109790000Y-63120001I0J249999D01*
G01*
X109790000Y-62419999D01*
G75*
G02*
X110039999Y-62170000I249999J0D01*
G01*
G37*
G36*
G01*
X110039999Y-64170000D02*
X110940001Y-64170000D01*
G75*
G02*
X111190000Y-64419999I0J-249999D01*
G01*
X111190000Y-65120001D01*
G75*
G02*
X110940001Y-65370000I-249999J0D01*
G01*
X110039999Y-65370000D01*
G75*
G02*
X109790000Y-65120001I0J249999D01*
G01*
X109790000Y-64419999D01*
G75*
G02*
X110039999Y-64170000I249999J0D01*
G01*
G37*
%TD*%
%TO.C,R32*%
G36*
G01*
X106229999Y-64170000D02*
X107130001Y-64170000D01*
G75*
G02*
X107380000Y-64419999I0J-249999D01*
G01*
X107380000Y-65120001D01*
G75*
G02*
X107130001Y-65370000I-249999J0D01*
G01*
X106229999Y-65370000D01*
G75*
G02*
X105980000Y-65120001I0J249999D01*
G01*
X105980000Y-64419999D01*
G75*
G02*
X106229999Y-64170000I249999J0D01*
G01*
G37*
G36*
G01*
X106229999Y-62170000D02*
X107130001Y-62170000D01*
G75*
G02*
X107380000Y-62419999I0J-249999D01*
G01*
X107380000Y-63120001D01*
G75*
G02*
X107130001Y-63370000I-249999J0D01*
G01*
X106229999Y-63370000D01*
G75*
G02*
X105980000Y-63120001I0J249999D01*
G01*
X105980000Y-62419999D01*
G75*
G02*
X106229999Y-62170000I249999J0D01*
G01*
G37*
%TD*%
%TO.C,R33*%
G36*
G01*
X102419999Y-62170000D02*
X103320001Y-62170000D01*
G75*
G02*
X103570000Y-62419999I0J-249999D01*
G01*
X103570000Y-63120001D01*
G75*
G02*
X103320001Y-63370000I-249999J0D01*
G01*
X102419999Y-63370000D01*
G75*
G02*
X102170000Y-63120001I0J249999D01*
G01*
X102170000Y-62419999D01*
G75*
G02*
X102419999Y-62170000I249999J0D01*
G01*
G37*
G36*
G01*
X102419999Y-64170000D02*
X103320001Y-64170000D01*
G75*
G02*
X103570000Y-64419999I0J-249999D01*
G01*
X103570000Y-65120001D01*
G75*
G02*
X103320001Y-65370000I-249999J0D01*
G01*
X102419999Y-65370000D01*
G75*
G02*
X102170000Y-65120001I0J249999D01*
G01*
X102170000Y-64419999D01*
G75*
G02*
X102419999Y-64170000I249999J0D01*
G01*
G37*
%TD*%
%TO.C,R34*%
G36*
G01*
X98609999Y-64170000D02*
X99510001Y-64170000D01*
G75*
G02*
X99760000Y-64419999I0J-249999D01*
G01*
X99760000Y-65120001D01*
G75*
G02*
X99510001Y-65370000I-249999J0D01*
G01*
X98609999Y-65370000D01*
G75*
G02*
X98360000Y-65120001I0J249999D01*
G01*
X98360000Y-64419999D01*
G75*
G02*
X98609999Y-64170000I249999J0D01*
G01*
G37*
G36*
G01*
X98609999Y-62170000D02*
X99510001Y-62170000D01*
G75*
G02*
X99760000Y-62419999I0J-249999D01*
G01*
X99760000Y-63120001D01*
G75*
G02*
X99510001Y-63370000I-249999J0D01*
G01*
X98609999Y-63370000D01*
G75*
G02*
X98360000Y-63120001I0J249999D01*
G01*
X98360000Y-62419999D01*
G75*
G02*
X98609999Y-62170000I249999J0D01*
G01*
G37*
%TD*%
%TO.C,R35*%
G36*
G01*
X94799999Y-62170000D02*
X95700001Y-62170000D01*
G75*
G02*
X95950000Y-62419999I0J-249999D01*
G01*
X95950000Y-63120001D01*
G75*
G02*
X95700001Y-63370000I-249999J0D01*
G01*
X94799999Y-63370000D01*
G75*
G02*
X94550000Y-63120001I0J249999D01*
G01*
X94550000Y-62419999D01*
G75*
G02*
X94799999Y-62170000I249999J0D01*
G01*
G37*
G36*
G01*
X94799999Y-64170000D02*
X95700001Y-64170000D01*
G75*
G02*
X95950000Y-64419999I0J-249999D01*
G01*
X95950000Y-65120001D01*
G75*
G02*
X95700001Y-65370000I-249999J0D01*
G01*
X94799999Y-65370000D01*
G75*
G02*
X94550000Y-65120001I0J249999D01*
G01*
X94550000Y-64419999D01*
G75*
G02*
X94799999Y-64170000I249999J0D01*
G01*
G37*
%TD*%
%TO.C,R36*%
G36*
G01*
X90989999Y-62170000D02*
X91890001Y-62170000D01*
G75*
G02*
X92140000Y-62419999I0J-249999D01*
G01*
X92140000Y-63120001D01*
G75*
G02*
X91890001Y-63370000I-249999J0D01*
G01*
X90989999Y-63370000D01*
G75*
G02*
X90740000Y-63120001I0J249999D01*
G01*
X90740000Y-62419999D01*
G75*
G02*
X90989999Y-62170000I249999J0D01*
G01*
G37*
G36*
G01*
X90989999Y-64170000D02*
X91890001Y-64170000D01*
G75*
G02*
X92140000Y-64419999I0J-249999D01*
G01*
X92140000Y-65120001D01*
G75*
G02*
X91890001Y-65370000I-249999J0D01*
G01*
X90989999Y-65370000D01*
G75*
G02*
X90740000Y-65120001I0J249999D01*
G01*
X90740000Y-64419999D01*
G75*
G02*
X90989999Y-64170000I249999J0D01*
G01*
G37*
%TD*%
%TO.C,R37*%
G36*
G01*
X87179999Y-64170000D02*
X88080001Y-64170000D01*
G75*
G02*
X88330000Y-64419999I0J-249999D01*
G01*
X88330000Y-65120001D01*
G75*
G02*
X88080001Y-65370000I-249999J0D01*
G01*
X87179999Y-65370000D01*
G75*
G02*
X86930000Y-65120001I0J249999D01*
G01*
X86930000Y-64419999D01*
G75*
G02*
X87179999Y-64170000I249999J0D01*
G01*
G37*
G36*
G01*
X87179999Y-62170000D02*
X88080001Y-62170000D01*
G75*
G02*
X88330000Y-62419999I0J-249999D01*
G01*
X88330000Y-63120001D01*
G75*
G02*
X88080001Y-63370000I-249999J0D01*
G01*
X87179999Y-63370000D01*
G75*
G02*
X86930000Y-63120001I0J249999D01*
G01*
X86930000Y-62419999D01*
G75*
G02*
X87179999Y-62170000I249999J0D01*
G01*
G37*
%TD*%
%TO.C,R38*%
G36*
G01*
X83369999Y-62215001D02*
X84270001Y-62215001D01*
G75*
G02*
X84520000Y-62465000I0J-249999D01*
G01*
X84520000Y-63165002D01*
G75*
G02*
X84270001Y-63415001I-249999J0D01*
G01*
X83369999Y-63415001D01*
G75*
G02*
X83120000Y-63165002I0J249999D01*
G01*
X83120000Y-62465000D01*
G75*
G02*
X83369999Y-62215001I249999J0D01*
G01*
G37*
G36*
G01*
X83369999Y-64215001D02*
X84270001Y-64215001D01*
G75*
G02*
X84520000Y-64465000I0J-249999D01*
G01*
X84520000Y-65165002D01*
G75*
G02*
X84270001Y-65415001I-249999J0D01*
G01*
X83369999Y-65415001D01*
G75*
G02*
X83120000Y-65165002I0J249999D01*
G01*
X83120000Y-64465000D01*
G75*
G02*
X83369999Y-64215001I249999J0D01*
G01*
G37*
%TD*%
%TO.C,R39*%
G36*
G01*
X79559999Y-64170000D02*
X80460001Y-64170000D01*
G75*
G02*
X80710000Y-64419999I0J-249999D01*
G01*
X80710000Y-65120001D01*
G75*
G02*
X80460001Y-65370000I-249999J0D01*
G01*
X79559999Y-65370000D01*
G75*
G02*
X79310000Y-65120001I0J249999D01*
G01*
X79310000Y-64419999D01*
G75*
G02*
X79559999Y-64170000I249999J0D01*
G01*
G37*
G36*
G01*
X79559999Y-62170000D02*
X80460001Y-62170000D01*
G75*
G02*
X80710000Y-62419999I0J-249999D01*
G01*
X80710000Y-63120001D01*
G75*
G02*
X80460001Y-63370000I-249999J0D01*
G01*
X79559999Y-63370000D01*
G75*
G02*
X79310000Y-63120001I0J249999D01*
G01*
X79310000Y-62419999D01*
G75*
G02*
X79559999Y-62170000I249999J0D01*
G01*
G37*
%TD*%
%TO.C,R40*%
G36*
G01*
X75749999Y-62170000D02*
X76650001Y-62170000D01*
G75*
G02*
X76900000Y-62419999I0J-249999D01*
G01*
X76900000Y-63120001D01*
G75*
G02*
X76650001Y-63370000I-249999J0D01*
G01*
X75749999Y-63370000D01*
G75*
G02*
X75500000Y-63120001I0J249999D01*
G01*
X75500000Y-62419999D01*
G75*
G02*
X75749999Y-62170000I249999J0D01*
G01*
G37*
G36*
G01*
X75749999Y-64170000D02*
X76650001Y-64170000D01*
G75*
G02*
X76900000Y-64419999I0J-249999D01*
G01*
X76900000Y-65120001D01*
G75*
G02*
X76650001Y-65370000I-249999J0D01*
G01*
X75749999Y-65370000D01*
G75*
G02*
X75500000Y-65120001I0J249999D01*
G01*
X75500000Y-64419999D01*
G75*
G02*
X75749999Y-64170000I249999J0D01*
G01*
G37*
%TD*%
%TO.C,R41*%
G36*
G01*
X59020000Y-61779999D02*
X59020000Y-62680001D01*
G75*
G02*
X58770001Y-62930000I-249999J0D01*
G01*
X58069999Y-62930000D01*
G75*
G02*
X57820000Y-62680001I0J249999D01*
G01*
X57820000Y-61779999D01*
G75*
G02*
X58069999Y-61530000I249999J0D01*
G01*
X58770001Y-61530000D01*
G75*
G02*
X59020000Y-61779999I0J-249999D01*
G01*
G37*
G36*
G01*
X61020000Y-61779999D02*
X61020000Y-62680001D01*
G75*
G02*
X60770001Y-62930000I-249999J0D01*
G01*
X60069999Y-62930000D01*
G75*
G02*
X59820000Y-62680001I0J249999D01*
G01*
X59820000Y-61779999D01*
G75*
G02*
X60069999Y-61530000I249999J0D01*
G01*
X60770001Y-61530000D01*
G75*
G02*
X61020000Y-61779999I0J-249999D01*
G01*
G37*
%TD*%
M02*
